{"glyphs":{"0":{"ha":867,"x_min":80,"x_max":788,"o":"m 433 -13 q 246 39 326 -13 q 123 207 167 91 q 80 514 80 323 q 123 821 80 705 q 245 989 166 937 q 433 1041 324 1041 q 622 989 543 1041 q 744 821 701 937 q 788 514 788 705 q 744 207 788 323 q 621 39 701 91 q 433 -13 542 -13 m 434 84 q 561 122 507 84 q 645 254 615 160 q 674 512 674 347 q 645 773 674 678 q 561 905 615 867 q 434 944 507 944 q 306 906 360 944 q 223 774 252 867 q 193 516 193 681 q 223 255 193 349 q 306 123 252 161 q 434 84 360 84 z "},"1":{"ha":508,"x_min":17,"x_max":383,"o":"m 271 0 l 271 890 l 17 708 l 17 819 l 312 1031 l 383 1031 l 383 0 l 271 0 z "},"2":{"ha":685,"x_min":30,"x_max":641,"o":"m 42 0 l 42 62 l 336 453 q 416 573 386 520 q 460 669 447 625 q 473 758 473 714 q 418 901 473 858 q 253 945 363 945 q 136 935 192 945 q 30 904 81 924 l 30 1001 q 98 1022 60 1013 q 178 1036 135 1031 q 262 1041 220 1041 q 501 975 417 1041 q 585 767 585 910 q 570 659 585 712 q 522 545 556 606 q 429 410 488 485 l 192 97 l 641 97 l 641 0 l 42 0 z "},"3":{"ha":703,"x_min":36,"x_max":653,"o":"m 284 -13 q 156 -3 219 -13 q 36 26 93 7 l 36 118 q 159 88 96 99 q 281 78 223 78 q 479 130 413 78 q 544 283 544 183 q 483 429 544 376 q 288 481 422 481 l 165 481 l 165 573 l 232 573 q 440 625 370 573 q 510 773 510 677 q 453 905 510 859 q 285 950 397 950 q 172 941 228 950 q 60 911 115 931 l 60 1003 q 131 1023 92 1015 q 212 1036 170 1032 q 294 1041 253 1041 q 536 973 453 1041 q 619 780 619 904 q 559 614 619 681 q 431 535 510 559 q 587 457 531 514 q 653 278 653 389 q 612 121 653 186 q 488 22 570 56 q 284 -13 406 -13 z "},"4":{"ha":820,"x_min":33,"x_max":792,"o":"m 33 247 l 33 309 l 432 1028 l 545 1028 l 164 338 l 542 338 l 556 681 l 647 681 l 647 338 l 792 338 l 792 247 l 647 247 l 647 0 l 542 0 l 542 247 l 33 247 z "},"5":{"ha":710,"x_min":54,"x_max":671,"o":"m 303 -13 q 174 -2 238 -13 q 54 27 110 8 l 54 119 q 176 89 113 100 q 301 78 240 78 q 498 131 433 78 q 563 288 563 184 q 530 400 563 356 q 424 470 498 445 q 222 502 349 495 l 92 510 l 127 1028 l 628 1028 l 628 936 l 228 936 l 205 595 l 260 592 q 496 548 405 583 q 629 449 587 513 q 671 290 671 385 q 577 65 671 142 q 303 -13 484 -13 z "},"6":{"ha":799,"x_min":88,"x_max":758,"o":"m 445 -13 q 300 14 365 -13 q 186 99 234 40 q 113 251 139 157 q 88 481 88 346 q 138 798 88 674 q 285 982 188 922 q 522 1041 383 1041 q 620 1034 572 1041 q 710 1010 669 1027 l 710 917 q 620 941 668 933 q 526 949 572 949 q 345 903 418 949 q 235 760 272 858 q 199 515 199 665 q 292 565 237 546 q 440 591 363 591 q 605 558 533 591 q 717 459 676 526 q 758 291 758 393 q 718 124 758 192 q 607 21 678 56 q 445 -13 537 -13 m 199 424 q 216 280 202 340 q 266 159 233 204 q 344 95 299 115 q 446 76 390 76 q 551 98 505 76 q 625 167 598 120 q 651 288 651 214 q 623 410 651 363 q 543 480 595 458 q 422 502 492 502 q 334 492 380 502 q 247 459 289 481 q 199 424 221 444 z "},"7":{"ha":653,"x_min":8,"x_max":612,"o":"m 118 0 l 488 931 l 8 931 l 8 1028 l 612 1028 l 612 966 l 235 0 l 118 0 z "},"8":{"ha":867,"x_min":69,"x_max":798,"o":"m 440 -13 q 235 19 317 -13 q 110 113 152 52 q 69 258 69 173 q 128 429 69 357 q 265 526 179 492 q 238 542 251 534 q 134 641 165 583 q 102 773 102 698 q 141 914 102 854 q 255 1008 180 974 q 436 1041 330 1041 q 677 972 590 1041 q 765 781 765 902 q 742 669 765 720 q 674 578 719 617 q 588 523 638 547 q 664 488 631 507 q 767 393 735 448 q 798 265 798 338 q 757 119 798 182 q 635 22 715 57 q 440 -13 556 -13 m 351 493 q 228 411 272 465 q 177 268 177 349 q 243 123 177 174 q 440 73 310 73 q 626 121 562 73 q 690 258 690 169 q 665 353 690 314 q 584 419 641 392 q 429 471 527 447 q 351 493 387 481 m 496 552 q 620 640 581 591 q 663 773 663 693 q 603 908 663 862 q 435 955 544 955 q 268 907 324 955 q 212 776 212 858 q 235 682 212 722 q 315 613 258 642 q 473 558 372 583 q 496 552 485 555 z "},"9":{"ha":799,"x_min":42,"x_max":712,"o":"m 354 1041 q 500 1014 434 1041 q 613 929 565 988 q 686 776 660 871 q 712 547 712 682 q 661 230 712 353 q 514 46 611 106 q 277 -13 417 -13 q 179 -6 227 -13 q 90 17 131 1 l 90 110 q 179 87 131 94 q 273 79 227 79 q 454 125 381 79 q 564 267 527 170 q 601 513 600 363 q 508 463 563 482 q 359 437 436 437 q 194 469 266 437 q 82 568 123 502 q 42 737 42 635 q 82 904 42 836 q 192 1007 122 972 q 354 1041 263 1041 m 600 603 q 583 748 597 688 q 533 868 566 824 q 455 933 501 913 q 353 952 409 952 q 248 930 294 952 q 175 861 201 908 q 148 740 148 814 q 176 618 148 665 q 256 548 204 570 q 377 526 308 526 q 465 536 419 526 q 552 569 510 547 q 600 603 578 583 z "},"A":{"ha":937,"x_min":20,"x_max":917,"o":"m 20 0 l 389 1028 l 548 1028 l 917 0 l 802 0 l 685 333 l 250 333 l 133 0 l 20 0 m 651 428 l 467 947 l 284 428 l 651 428 z "},"Á":{"ha":937,"x_min":20,"x_max":917,"o":"m 20 0 l 389 1028 l 548 1028 l 917 0 l 802 0 l 685 333 l 250 333 l 133 0 l 20 0 m 651 428 l 467 947 l 284 428 l 651 428 m 418 1117 l 541 1314 l 661 1314 l 519 1117 l 418 1117 z "},"Ă":{"ha":937,"x_min":20,"x_max":917,"o":"m 20 0 l 389 1028 l 548 1028 l 917 0 l 802 0 l 685 333 l 250 333 l 133 0 l 20 0 m 651 428 l 467 947 l 284 428 l 651 428 m 469 1123 q 352 1145 400 1123 q 279 1206 305 1167 q 247 1299 253 1246 l 322 1299 q 364 1217 331 1245 q 469 1189 398 1189 q 575 1217 542 1189 q 615 1299 608 1245 l 690 1299 q 659 1206 685 1245 q 586 1144 633 1166 q 469 1123 540 1123 z "},"Â":{"ha":937,"x_min":20,"x_max":917,"o":"m 20 0 l 389 1028 l 548 1028 l 917 0 l 802 0 l 685 333 l 250 333 l 133 0 l 20 0 m 651 428 l 467 947 l 284 428 l 651 428 m 247 1117 l 417 1314 l 520 1314 l 690 1117 l 593 1117 l 469 1265 l 344 1117 l 247 1117 z "},"Ä":{"ha":937,"x_min":20,"x_max":917,"o":"m 20 0 l 389 1028 l 548 1028 l 917 0 l 802 0 l 685 333 l 250 333 l 133 0 l 20 0 m 651 428 l 467 947 l 284 428 l 651 428 m 631 1152 q 578 1169 597 1152 q 560 1216 560 1187 q 578 1264 560 1247 q 631 1281 597 1281 q 683 1264 665 1281 q 702 1216 702 1247 q 683 1169 702 1187 q 631 1152 665 1152 m 306 1152 q 254 1169 273 1152 q 235 1216 235 1187 q 254 1264 235 1247 q 306 1281 273 1281 q 359 1264 340 1281 q 378 1216 378 1247 q 359 1169 378 1187 q 306 1152 340 1152 z "},"À":{"ha":937,"x_min":20,"x_max":917,"o":"m 20 0 l 389 1028 l 548 1028 l 917 0 l 802 0 l 685 333 l 250 333 l 133 0 l 20 0 m 651 428 l 467 947 l 284 428 l 651 428 m 418 1117 l 276 1314 l 397 1314 l 519 1117 l 418 1117 z "},"Å":{"ha":937,"x_min":20,"x_max":917,"o":"m 20 0 l 389 1028 l 548 1028 l 917 0 l 802 0 l 685 333 l 250 333 l 133 0 l 20 0 m 651 428 l 467 947 l 284 428 l 651 428 m 469 1111 q 372 1149 410 1111 q 333 1246 333 1188 q 372 1342 333 1304 q 469 1380 410 1380 q 566 1342 528 1380 q 604 1246 604 1304 q 566 1149 604 1188 q 469 1111 528 1111 m 469 1163 q 527 1185 504 1163 q 550 1246 550 1208 q 527 1307 550 1285 q 469 1328 504 1328 q 410 1307 433 1328 q 388 1246 388 1285 q 410 1185 388 1208 q 469 1163 433 1163 z "},"Ã":{"ha":937,"x_min":20,"x_max":917,"o":"m 20 0 l 389 1028 l 548 1028 l 917 0 l 802 0 l 685 333 l 250 333 l 133 0 l 20 0 m 651 428 l 467 947 l 284 428 l 651 428 m 576 1158 q 514 1167 543 1158 q 458 1187 485 1176 q 409 1204 433 1197 q 360 1211 385 1211 q 295 1199 323 1211 q 241 1163 267 1188 l 241 1238 q 292 1273 263 1261 q 362 1284 322 1284 q 424 1275 394 1284 q 479 1256 453 1266 q 528 1238 504 1246 q 577 1231 552 1231 q 643 1243 615 1231 q 697 1280 671 1255 l 697 1203 q 645 1170 675 1181 q 576 1158 616 1158 z "},"Æ":{"ha":1283,"x_min":20,"x_max":1233,"o":"m 20 0 l 395 1028 l 1226 1028 l 1226 933 l 699 933 l 724 575 l 1158 575 l 1158 480 l 731 480 l 758 95 l 1233 95 l 1233 0 l 653 0 l 630 333 l 253 333 l 133 0 l 20 0 m 590 933 l 470 933 l 288 428 l 624 428 l 590 933 z "},"B":{"ha":874,"x_min":117,"x_max":824,"o":"m 371 -9 q 288 -7 330 -9 q 203 -1 246 -5 q 117 8 161 2 l 117 1010 q 205 1026 160 1019 q 298 1035 249 1032 q 400 1039 347 1039 q 625 1009 538 1039 q 753 918 713 978 q 794 765 794 857 q 773 655 794 706 q 705 571 751 605 q 613 531 668 544 q 765 453 713 513 q 824 279 824 386 q 799 155 824 209 q 720 65 774 101 q 580 10 667 28 q 371 -9 494 -9 m 394 81 q 586 103 515 81 q 686 170 656 125 q 717 283 717 215 q 652 433 717 385 q 449 482 588 482 l 228 482 l 228 90 q 309 83 269 85 q 394 81 349 81 m 228 573 l 429 573 q 579 594 522 573 q 661 656 635 615 q 686 760 686 698 q 623 905 686 861 q 410 949 560 949 q 310 945 353 949 q 228 935 267 942 l 228 573 z "},"C":{"ha":799,"x_min":73,"x_max":772,"o":"m 538 -13 q 346 15 432 -13 q 199 105 260 43 q 106 267 138 167 q 73 512 73 368 q 130 815 73 698 q 293 986 187 931 q 549 1041 400 1041 q 664 1033 609 1041 q 772 1011 718 1026 l 772 913 q 664 936 717 929 q 553 943 610 943 q 356 902 437 943 q 233 766 275 860 q 192 515 192 672 q 234 258 192 352 q 356 124 276 164 q 547 85 435 85 q 657 94 603 85 q 772 123 710 103 l 772 25 q 661 -3 720 7 q 538 -13 603 -13 z "},"Ç":{"ha":799,"x_min":73,"x_max":772,"o":"m 538 -13 q 525 -12 532 -13 l 525 -71 q 610 -97 577 -75 q 649 -178 649 -125 q 609 -260 649 -232 q 496 -288 569 -288 q 426 -282 461 -288 q 362 -263 392 -276 l 362 -207 q 430 -228 399 -222 q 492 -234 462 -234 q 558 -220 535 -234 q 582 -176 582 -207 q 558 -131 582 -145 q 490 -117 534 -117 l 462 -117 l 462 -9 q 347 15 400 -2 q 199 105 260 43 q 106 267 138 167 q 73 512 73 368 q 130 815 73 698 q 293 986 187 931 q 549 1041 400 1041 q 664 1033 609 1041 q 772 1011 718 1026 l 772 913 q 664 936 717 929 q 553 943 610 943 q 356 902 437 943 q 233 766 275 860 q 192 515 192 672 q 234 258 192 352 q 356 124 276 164 q 547 85 435 85 q 657 94 603 85 q 772 123 710 103 l 772 25 q 661 -3 720 7 q 538 -13 603 -13 z "},"D":{"ha":972,"x_min":117,"x_max":899,"o":"m 360 -8 q 283 -7 322 -8 q 204 -2 245 -5 q 117 6 163 1 l 117 1011 q 205 1026 159 1019 q 296 1035 250 1032 q 386 1038 342 1038 q 770 910 640 1038 q 899 514 899 781 q 839 217 899 333 q 659 47 778 102 q 360 -8 539 -8 m 383 88 q 606 132 517 88 q 739 269 694 175 q 783 515 783 363 q 739 758 783 664 q 609 898 696 853 q 390 942 522 942 q 312 939 352 942 q 230 928 272 935 l 230 97 q 302 90 266 92 q 383 88 339 88 z "},"Ð":{"ha":972,"x_min":2,"x_max":899,"o":"m 2 490 l 2 569 l 117 569 l 117 1011 q 205 1026 159 1019 q 296 1035 250 1032 q 386 1038 342 1038 q 770 910 640 1038 q 899 514 899 781 q 839 217 899 333 q 659 47 778 102 q 360 -8 539 -8 q 283 -7 322 -8 q 204 -2 245 -5 q 117 6 163 1 l 117 490 l 2 490 m 383 88 q 606 132 517 88 q 739 269 694 175 q 783 515 783 363 q 739 758 783 664 q 609 898 696 853 q 390 942 522 942 q 312 939 352 942 q 230 928 272 935 l 230 569 l 460 569 l 460 490 l 230 490 l 230 97 q 302 90 266 92 q 383 88 339 88 z "},"E":{"ha":810,"x_min":117,"x_max":760,"o":"m 117 0 l 117 1028 l 753 1028 l 753 933 l 229 933 l 229 575 l 685 575 l 685 480 l 229 480 l 229 95 l 760 95 l 760 0 l 117 0 z "},"É":{"ha":810,"x_min":117,"x_max":760,"o":"m 117 0 l 117 1028 l 753 1028 l 753 933 l 229 933 l 229 575 l 685 575 l 685 480 l 229 480 l 229 95 l 760 95 l 760 0 l 117 0 m 400 1117 l 523 1314 l 643 1314 l 501 1117 l 400 1117 z "},"Ê":{"ha":810,"x_min":117,"x_max":760,"o":"m 117 0 l 117 1028 l 753 1028 l 753 933 l 229 933 l 229 575 l 685 575 l 685 480 l 229 480 l 229 95 l 760 95 l 760 0 l 117 0 m 229 1117 l 399 1314 l 502 1314 l 672 1117 l 575 1117 l 451 1265 l 326 1117 l 229 1117 z "},"Ë":{"ha":810,"x_min":117,"x_max":760,"o":"m 117 0 l 117 1028 l 753 1028 l 753 933 l 229 933 l 229 575 l 685 575 l 685 480 l 229 480 l 229 95 l 760 95 l 760 0 l 117 0 m 613 1152 q 560 1169 579 1152 q 542 1216 542 1187 q 560 1264 542 1247 q 613 1281 579 1281 q 665 1264 647 1281 q 684 1216 684 1247 q 665 1169 684 1187 q 613 1152 647 1152 m 288 1152 q 236 1169 255 1152 q 217 1216 217 1187 q 236 1264 217 1247 q 288 1281 255 1281 q 341 1264 322 1281 q 360 1216 360 1247 q 341 1169 360 1187 q 288 1152 322 1152 z "},"È":{"ha":810,"x_min":117,"x_max":760,"o":"m 117 0 l 117 1028 l 753 1028 l 753 933 l 229 933 l 229 575 l 685 575 l 685 480 l 229 480 l 229 95 l 760 95 l 760 0 l 117 0 m 400 1117 l 258 1314 l 378 1314 l 501 1117 l 400 1117 z "},"F":{"ha":781,"x_min":117,"x_max":748,"o":"m 117 0 l 117 1028 l 748 1028 l 748 931 l 230 931 l 230 567 l 681 567 l 681 471 l 230 471 l 230 0 l 117 0 z "},"G":{"ha":935,"x_min":73,"x_max":831,"o":"m 601 -9 q 310 46 427 -9 q 133 216 192 101 q 73 512 73 331 q 135 815 73 699 q 310 986 197 932 q 577 1041 423 1041 q 693 1033 635 1041 q 807 1010 750 1026 l 807 913 q 690 936 744 930 q 583 943 636 943 q 373 901 461 943 q 238 765 285 860 q 191 512 191 671 q 236 268 191 361 q 371 131 281 174 q 594 88 460 88 q 687 92 644 88 q 724 97 706 94 l 724 500 l 831 500 l 831 11 q 711 -4 765 1 q 601 -9 657 -9 z "},"H":{"ha":1003,"x_min":117,"x_max":886,"o":"m 117 0 l 117 1028 l 230 1028 l 230 578 l 773 578 l 773 1028 l 886 1028 l 886 0 l 773 0 l 773 476 l 230 476 l 230 0 l 117 0 z "},"I":{"ha":348,"x_min":117,"x_max":230,"o":"m 117 0 l 117 1028 l 230 1028 l 230 0 l 117 0 z "},"Í":{"ha":348,"x_min":117,"x_max":366,"o":"m 117 0 l 117 1028 l 230 1028 l 230 0 l 117 0 m 123 1117 l 246 1314 l 366 1314 l 224 1117 l 123 1117 z "},"Î":{"ha":348,"x_min":-48,"x_max":395,"o":"m 117 0 l 117 1028 l 230 1028 l 230 0 l 117 0 m -48 1117 l 122 1314 l 225 1314 l 395 1117 l 298 1117 l 174 1265 l 49 1117 l -48 1117 z "},"Ï":{"ha":348,"x_min":-60,"x_max":407,"o":"m 117 0 l 117 1028 l 230 1028 l 230 0 l 117 0 m 336 1152 q 283 1169 302 1152 q 265 1216 265 1187 q 283 1264 265 1247 q 336 1281 302 1281 q 388 1264 369 1281 q 407 1216 407 1247 q 388 1169 407 1187 q 336 1152 369 1152 m 11 1152 q -41 1169 -22 1152 q -60 1216 -60 1187 q -41 1264 -60 1247 q 11 1281 -22 1281 q 64 1264 45 1281 q 83 1216 83 1247 q 64 1169 83 1187 q 11 1152 45 1152 z "},"Ì":{"ha":348,"x_min":-19,"x_max":230,"o":"m 117 0 l 117 1028 l 230 1028 l 230 0 l 117 0 m 123 1117 l -19 1314 l 101 1314 l 224 1117 l 123 1117 z "},"J":{"ha":348,"x_min":-6,"x_max":230,"o":"m 68 -239 l -6 -188 q 65 -70 38 -128 q 105 52 92 -13 q 118 202 118 117 l 118 1028 l 230 1028 l 230 188 q 214 33 230 103 q 161 -102 197 -37 q 68 -239 126 -168 z "},"K":{"ha":859,"x_min":117,"x_max":875,"o":"m 748 0 l 381 476 l 230 476 l 230 0 l 117 0 l 117 1028 l 230 1028 l 230 578 l 383 578 l 722 1028 l 846 1028 l 469 530 l 875 0 l 748 0 z "},"L":{"ha":744,"x_min":117,"x_max":736,"o":"m 117 0 l 117 1028 l 230 1028 l 230 98 l 736 98 l 736 0 l 117 0 z "},"M":{"ha":1222,"x_min":120,"x_max":1102,"o":"m 120 0 l 120 1028 l 254 1028 l 613 256 l 968 1028 l 1102 1028 l 1102 0 l 996 0 l 996 860 l 662 142 l 560 142 l 226 852 l 226 0 l 120 0 z "},"N":{"ha":1020,"x_min":117,"x_max":903,"o":"m 117 0 l 117 1028 l 233 1028 l 797 172 l 797 1028 l 903 1028 l 903 0 l 787 0 l 224 856 l 224 0 l 117 0 z "},"Ñ":{"ha":1020,"x_min":117,"x_max":903,"o":"m 117 0 l 117 1028 l 233 1028 l 797 172 l 797 1028 l 903 1028 l 903 0 l 787 0 l 224 856 l 224 0 l 117 0 m 617 1158 q 556 1167 585 1158 q 500 1187 527 1176 q 451 1204 475 1197 q 402 1211 427 1211 q 337 1199 365 1211 q 283 1163 309 1188 l 283 1238 q 334 1273 305 1261 q 403 1284 363 1284 q 465 1275 436 1284 q 521 1256 494 1266 q 570 1238 546 1246 q 619 1231 594 1231 q 684 1243 656 1231 q 738 1280 713 1255 l 738 1203 q 687 1170 717 1181 q 617 1158 658 1158 z "},"O":{"ha":999,"x_min":73,"x_max":926,"o":"m 500 -13 q 276 41 372 -13 q 126 212 180 96 q 73 514 73 328 q 126 816 73 699 q 276 986 180 932 q 500 1041 372 1041 q 724 986 628 1041 q 873 816 819 932 q 926 514 926 699 q 873 212 926 328 q 723 41 819 96 q 500 -13 627 -13 m 500 83 q 663 125 593 83 q 771 260 733 166 q 810 510 810 353 q 771 766 810 671 q 663 903 733 861 q 500 944 593 944 q 336 903 406 944 q 228 769 267 863 q 190 517 190 675 q 228 261 190 356 q 336 125 267 167 q 500 83 406 83 z "},"Ó":{"ha":999,"x_min":73,"x_max":926,"o":"m 500 -13 q 276 41 372 -13 q 126 212 180 96 q 73 514 73 328 q 126 816 73 699 q 276 986 180 932 q 500 1041 372 1041 q 724 986 628 1041 q 873 816 819 932 q 926 514 926 699 q 873 212 926 328 q 723 41 819 96 q 500 -13 627 -13 m 500 83 q 663 125 593 83 q 771 260 733 166 q 810 510 810 353 q 771 766 810 671 q 663 903 733 861 q 500 944 593 944 q 336 903 406 944 q 228 769 267 863 q 190 517 190 675 q 228 261 190 356 q 336 125 267 167 q 500 83 406 83 m 449 1117 l 572 1314 l 692 1314 l 550 1117 l 449 1117 z "},"Ô":{"ha":999,"x_min":73,"x_max":926,"o":"m 500 -13 q 276 41 372 -13 q 126 212 180 96 q 73 514 73 328 q 126 816 73 699 q 276 986 180 932 q 500 1041 372 1041 q 724 986 628 1041 q 873 816 819 932 q 926 514 926 699 q 873 212 926 328 q 723 41 819 96 q 500 -13 627 -13 m 500 83 q 663 125 593 83 q 771 260 733 166 q 810 510 810 353 q 771 766 810 671 q 663 903 733 861 q 500 944 593 944 q 336 903 406 944 q 228 769 267 863 q 190 517 190 675 q 228 261 190 356 q 336 125 267 167 q 500 83 406 83 m 278 1117 l 449 1314 l 551 1314 l 722 1117 l 624 1117 l 500 1265 l 376 1117 l 278 1117 z "},"Ö":{"ha":999,"x_min":73,"x_max":926,"o":"m 500 -13 q 276 41 372 -13 q 126 212 180 96 q 73 514 73 328 q 126 816 73 699 q 276 986 180 932 q 500 1041 372 1041 q 724 986 628 1041 q 873 816 819 932 q 926 514 926 699 q 873 212 926 328 q 723 41 819 96 q 500 -13 627 -13 m 500 83 q 663 125 593 83 q 771 260 733 166 q 810 510 810 353 q 771 766 810 671 q 663 903 733 861 q 500 944 593 944 q 336 903 406 944 q 228 769 267 863 q 190 517 190 675 q 228 261 190 356 q 336 125 267 167 q 500 83 406 83 m 663 1152 q 610 1169 628 1152 q 591 1216 591 1187 q 610 1264 591 1247 q 663 1281 628 1281 q 715 1264 696 1281 q 733 1216 733 1247 q 715 1169 733 1187 q 663 1152 696 1152 m 338 1152 q 285 1169 304 1152 q 267 1216 267 1187 q 285 1264 267 1247 q 338 1281 304 1281 q 390 1264 372 1281 q 409 1216 409 1247 q 390 1169 409 1187 q 338 1152 372 1152 z "},"Ò":{"ha":999,"x_min":73,"x_max":926,"o":"m 500 -13 q 276 41 372 -13 q 126 212 180 96 q 73 514 73 328 q 126 816 73 699 q 276 986 180 932 q 500 1041 372 1041 q 724 986 628 1041 q 873 816 819 932 q 926 514 926 699 q 873 212 926 328 q 723 41 819 96 q 500 -13 627 -13 m 500 83 q 663 125 593 83 q 771 260 733 166 q 810 510 810 353 q 771 766 810 671 q 663 903 733 861 q 500 944 593 944 q 336 903 406 944 q 228 769 267 863 q 190 517 190 675 q 228 261 190 356 q 336 125 267 167 q 500 83 406 83 m 449 1117 l 308 1314 l 428 1314 l 551 1117 l 449 1117 z "},"Ø":{"ha":999,"x_min":72,"x_max":926,"o":"m 162 -1 l 72 -1 l 172 134 q 126 212 147 169 q 73 514 73 328 q 126 816 73 699 q 276 986 180 932 q 500 1041 372 1041 q 724 986 628 1041 q 776 949 752 970 l 835 1028 l 925 1028 l 826 895 q 873 815 853 860 q 926 514 926 699 q 873 212 926 328 q 723 41 819 96 q 500 -13 627 -13 q 276 42 372 -13 q 222 80 247 58 l 162 -1 m 500 83 q 663 125 593 83 q 771 260 733 166 q 810 510 810 353 q 771 766 810 671 q 756 800 764 784 l 286 167 q 336 125 308 142 q 500 83 406 83 m 243 229 l 712 863 q 663 903 690 887 q 500 944 593 944 q 336 903 406 944 q 228 769 267 863 q 190 517 190 675 q 228 261 190 356 q 243 229 235 244 z "},"Õ":{"ha":999,"x_min":73,"x_max":926,"o":"m 500 -13 q 276 41 372 -13 q 126 212 180 96 q 73 514 73 328 q 126 816 73 699 q 276 986 180 932 q 500 1041 372 1041 q 724 986 628 1041 q 873 816 819 932 q 926 514 926 699 q 873 212 926 328 q 723 41 819 96 q 500 -13 627 -13 m 500 83 q 663 125 593 83 q 771 260 733 166 q 810 510 810 353 q 771 766 810 671 q 663 903 733 861 q 500 944 593 944 q 336 903 406 944 q 228 769 267 863 q 190 517 190 675 q 228 261 190 356 q 336 125 267 167 q 500 83 406 83 m 607 1158 q 545 1167 574 1158 q 490 1187 517 1176 q 441 1204 465 1197 q 392 1211 417 1211 q 326 1199 354 1211 q 272 1163 299 1188 l 272 1238 q 324 1273 294 1261 q 393 1284 353 1284 q 455 1275 426 1284 q 510 1256 484 1266 q 559 1238 535 1246 q 608 1231 583 1231 q 674 1243 646 1231 q 728 1280 702 1255 l 728 1203 q 677 1170 706 1181 q 607 1158 647 1158 z "},"Œ":{"ha":1394,"x_min":73,"x_max":1344,"o":"m 597 -8 q 308 48 424 -8 q 132 218 192 103 q 73 514 73 333 q 132 808 73 692 q 306 980 191 924 q 588 1037 420 1037 q 700 1032 644 1037 q 802 1028 755 1028 l 1338 1028 l 1338 933 l 835 933 l 835 575 l 1270 575 l 1270 480 l 835 480 l 835 95 l 1344 95 l 1344 0 l 808 0 q 743 -2 778 0 q 671 -6 708 -3 q 597 -8 633 -8 m 579 89 q 659 90 623 89 q 724 95 694 92 l 724 933 q 650 939 687 937 q 574 941 614 941 q 360 896 446 941 q 232 757 275 851 q 190 513 190 663 q 234 269 190 363 q 364 132 278 176 q 579 89 451 89 z "},"P":{"ha":856,"x_min":117,"x_max":794,"o":"m 117 0 l 117 1013 q 245 1032 181 1025 q 381 1039 310 1039 q 689 955 585 1039 q 794 688 794 870 q 690 427 794 517 q 365 337 586 337 q 298 339 329 337 q 230 343 266 340 l 230 0 l 117 0 m 367 428 q 608 492 533 428 q 682 686 682 556 q 609 885 682 823 q 389 947 537 947 q 305 944 344 947 q 230 935 267 941 l 230 437 q 297 430 264 432 q 367 428 330 428 z "},"Þ":{"ha":863,"x_min":117,"x_max":794,"o":"m 117 0 l 117 1028 l 230 1028 l 230 867 q 299 875 260 872 q 384 878 338 878 q 690 794 585 878 q 794 528 794 710 q 690 267 794 357 q 366 177 586 177 q 298 179 330 177 q 230 183 266 181 l 230 0 l 117 0 m 367 268 q 608 332 533 268 q 682 526 682 395 q 609 725 682 663 q 389 788 537 788 q 305 784 344 788 q 230 775 267 781 l 230 276 q 297 270 264 272 q 367 268 330 268 z "},"Q":{"ha":999,"x_min":73,"x_max":926,"o":"m 892 -160 q 563 -100 701 -137 q 330 -8 424 -62 q 179 121 235 47 q 98 292 123 195 q 73 512 73 389 q 126 815 73 699 q 276 986 180 932 q 500 1041 372 1041 q 723 987 627 1041 q 873 817 819 933 q 926 514 926 701 q 880 231 926 347 q 743 56 834 116 q 555 -3 665 5 q 599 -15 576 -9 q 753 -47 674 -34 q 910 -66 833 -59 l 892 -160 m 500 83 q 663 125 593 83 q 771 260 733 166 q 810 510 810 353 q 771 766 810 671 q 663 903 733 861 q 500 944 593 944 q 336 903 406 944 q 228 769 267 863 q 190 517 190 675 q 228 261 190 356 q 336 125 267 166 q 500 83 406 83 z "},"R":{"ha":908,"x_min":117,"x_max":872,"o":"m 117 0 l 117 1011 q 200 1025 157 1019 q 290 1035 242 1031 q 392 1039 338 1039 q 694 965 594 1039 q 793 734 793 891 q 745 563 793 631 q 603 459 697 494 q 540 441 573 449 l 872 0 l 744 0 l 424 426 q 371 424 399 424 q 296 426 328 424 q 228 431 263 428 l 228 0 l 117 0 m 372 515 q 611 568 537 515 q 685 733 685 622 q 656 857 685 810 q 562 927 626 905 q 398 949 499 949 q 307 945 346 949 q 228 934 268 941 l 228 522 q 277 517 256 519 q 321 515 299 516 q 372 515 343 515 z "},"S":{"ha":738,"x_min":51,"x_max":687,"o":"m 321 -13 q 193 -3 260 -13 q 67 28 127 8 l 67 126 q 155 102 110 111 q 241 88 199 92 q 322 83 283 83 q 511 131 450 83 q 572 272 572 179 q 526 391 572 350 q 369 462 480 433 l 313 476 q 117 577 182 510 q 51 756 51 645 q 143 965 51 889 q 417 1041 235 1041 q 535 1033 477 1041 q 642 1010 594 1025 l 642 913 q 533 937 589 929 q 420 945 477 945 q 276 924 332 945 q 192 861 219 902 q 165 763 165 820 q 208 645 165 687 q 354 576 250 603 l 410 562 q 566 500 505 538 q 657 407 627 462 q 687 278 687 353 q 644 120 687 185 q 519 21 601 56 q 321 -13 437 -13 z "},"T":{"ha":817,"x_min":10,"x_max":807,"o":"m 352 0 l 352 930 l 10 930 l 10 1028 l 807 1028 l 807 930 l 465 930 l 465 0 l 352 0 z "},"U":{"ha":984,"x_min":113,"x_max":872,"o":"m 493 -13 q 278 30 362 -13 q 153 162 194 73 q 113 389 113 251 l 113 1028 l 225 1028 l 225 376 q 290 154 225 224 q 493 84 355 84 q 697 154 633 84 q 762 376 762 224 l 762 1028 l 872 1028 l 872 389 q 832 162 872 251 q 708 30 792 73 q 493 -13 624 -13 z "},"Ú":{"ha":984,"x_min":113,"x_max":872,"o":"m 493 -13 q 278 30 362 -13 q 153 162 194 73 q 113 389 113 251 l 113 1028 l 225 1028 l 225 376 q 290 154 225 224 q 493 84 355 84 q 697 154 633 84 q 762 376 762 224 l 762 1028 l 872 1028 l 872 389 q 832 162 872 251 q 708 30 792 73 q 493 -13 624 -13 m 442 1117 l 565 1314 l 685 1314 l 543 1117 l 442 1117 z "},"Û":{"ha":984,"x_min":113,"x_max":872,"o":"m 493 -13 q 278 30 362 -13 q 153 162 194 73 q 113 389 113 251 l 113 1028 l 225 1028 l 225 376 q 290 154 225 224 q 493 84 355 84 q 697 154 633 84 q 762 376 762 224 l 762 1028 l 872 1028 l 872 389 q 832 162 872 251 q 708 30 792 73 q 493 -13 624 -13 m 272 1117 l 442 1314 l 544 1314 l 715 1117 l 617 1117 l 493 1265 l 369 1117 l 272 1117 z "},"Ü":{"ha":984,"x_min":113,"x_max":872,"o":"m 493 -13 q 278 30 362 -13 q 153 162 194 73 q 113 389 113 251 l 113 1028 l 225 1028 l 225 376 q 290 154 225 224 q 493 84 355 84 q 697 154 633 84 q 762 376 762 224 l 762 1028 l 872 1028 l 872 389 q 832 162 872 251 q 708 30 792 73 q 493 -13 624 -13 m 656 1152 q 603 1169 622 1152 q 584 1216 584 1187 q 603 1264 584 1247 q 656 1281 622 1281 q 708 1264 689 1281 q 726 1216 726 1247 q 708 1169 726 1187 q 656 1152 689 1152 m 331 1152 q 278 1169 297 1152 q 260 1216 260 1187 q 278 1264 260 1247 q 331 1281 297 1281 q 383 1264 365 1281 q 402 1216 402 1247 q 383 1169 402 1187 q 331 1152 365 1152 z "},"Ù":{"ha":984,"x_min":113,"x_max":872,"o":"m 493 -13 q 278 30 362 -13 q 153 162 194 73 q 113 389 113 251 l 113 1028 l 225 1028 l 225 376 q 290 154 225 224 q 493 84 355 84 q 697 154 633 84 q 762 376 762 224 l 762 1028 l 872 1028 l 872 389 q 832 162 872 251 q 708 30 792 73 q 493 -13 624 -13 m 442 1117 l 301 1314 l 421 1314 l 544 1117 l 442 1117 z "},"V":{"ha":913,"x_min":8,"x_max":905,"o":"m 374 0 l 8 1028 l 127 1028 l 459 87 l 793 1028 l 905 1028 l 538 0 l 374 0 z "},"W":{"ha":1469,"x_min":38,"x_max":1431,"o":"m 328 0 l 38 1028 l 154 1028 l 408 104 l 671 1028 l 803 1028 l 1065 101 l 1322 1028 l 1431 1028 l 1141 0 l 994 0 l 736 905 l 476 0 l 328 0 z "},"X":{"ha":888,"x_min":8,"x_max":879,"o":"m 750 0 l 442 438 l 135 0 l 8 0 l 376 524 l 21 1028 l 150 1028 l 444 610 l 738 1028 l 865 1028 l 510 525 l 879 0 l 750 0 z "},"Y":{"ha":817,"x_min":-22,"x_max":831,"o":"m 352 0 l 352 457 l -22 1028 l 103 1028 l 411 556 l 715 1028 l 831 1028 l 465 458 l 465 0 l 352 0 z "},"Ý":{"ha":817,"x_min":-22,"x_max":831,"o":"m 352 0 l 352 457 l -22 1028 l 103 1028 l 411 556 l 715 1028 l 831 1028 l 465 458 l 465 0 l 352 0 m 358 1117 l 481 1314 l 601 1314 l 458 1117 l 358 1117 z "},"Z":{"ha":801,"x_min":43,"x_max":758,"o":"m 43 0 l 43 63 l 602 931 l 51 931 l 51 1028 l 750 1028 l 750 965 l 191 97 l 758 97 l 758 0 l 43 0 z "},"a":{"ha":715,"x_min":64,"x_max":618,"o":"m 292 -12 q 125 42 185 -12 q 64 193 64 97 q 129 347 64 292 q 338 416 194 402 l 509 435 l 509 499 q 488 606 509 568 q 423 659 466 644 q 315 674 380 674 q 218 667 272 674 q 111 641 165 659 l 111 732 q 218 757 160 748 q 329 765 277 765 q 489 740 425 765 q 586 656 553 715 q 618 494 618 597 l 618 0 l 525 0 l 517 84 l 510 84 q 416 13 473 38 q 292 -12 358 -12 m 509 360 l 344 342 q 216 298 255 333 q 176 203 176 264 q 213 107 176 140 q 320 74 249 74 q 419 95 369 74 q 509 166 469 116 l 509 360 z "},"á":{"ha":715,"x_min":64,"x_max":618,"o":"m 292 -12 q 125 42 185 -12 q 64 193 64 97 q 129 347 64 292 q 338 416 194 402 l 509 435 l 509 499 q 488 606 509 568 q 423 659 466 644 q 315 674 380 674 q 218 667 272 674 q 111 641 165 659 l 111 732 q 218 757 160 748 q 329 765 277 765 q 489 740 425 765 q 586 656 553 715 q 618 494 618 597 l 618 0 l 525 0 l 517 84 l 510 84 q 416 13 473 38 q 292 -12 358 -12 m 509 360 l 344 342 q 216 298 255 333 q 176 203 176 264 q 213 107 176 140 q 320 74 249 74 q 419 95 369 74 q 509 166 469 116 l 509 360 m 303 870 l 453 1122 l 573 1122 l 406 870 l 303 870 z "},"â":{"ha":715,"x_min":64,"x_max":618,"o":"m 292 -12 q 125 42 185 -12 q 64 193 64 97 q 129 347 64 292 q 338 416 194 402 l 509 435 l 509 499 q 488 606 509 568 q 423 659 466 644 q 315 674 380 674 q 218 667 272 674 q 111 641 165 659 l 111 732 q 218 757 160 748 q 329 765 277 765 q 489 740 425 765 q 586 656 553 715 q 618 494 618 597 l 618 0 l 525 0 l 517 84 l 510 84 q 416 13 473 38 q 292 -12 358 -12 m 509 360 l 344 342 q 216 298 255 333 q 176 203 176 264 q 213 107 176 140 q 320 74 249 74 q 419 95 369 74 q 509 166 469 116 l 509 360 m 150 870 l 305 1122 l 405 1122 l 560 870 l 471 870 l 355 1065 l 239 870 l 150 870 z "},"ä":{"ha":715,"x_min":64,"x_max":618,"o":"m 292 -12 q 125 42 185 -12 q 64 193 64 97 q 129 347 64 292 q 338 416 194 402 l 509 435 l 509 499 q 488 606 509 568 q 423 659 466 644 q 315 674 380 674 q 218 667 272 674 q 111 641 165 659 l 111 732 q 218 757 160 748 q 329 765 277 765 q 489 740 425 765 q 586 656 553 715 q 618 494 618 597 l 618 0 l 525 0 l 517 84 l 510 84 q 416 13 473 38 q 292 -12 358 -12 m 509 360 l 344 342 q 216 298 255 333 q 176 203 176 264 q 213 107 176 140 q 320 74 249 74 q 419 95 369 74 q 509 166 469 116 l 509 360 m 506 919 q 453 937 472 919 q 434 987 434 956 q 453 1038 434 1019 q 506 1056 472 1056 q 557 1038 538 1056 q 576 987 576 1019 q 557 937 576 956 q 506 919 538 919 m 205 919 q 152 937 172 919 q 133 987 133 956 q 152 1038 133 1019 q 205 1056 172 1056 q 257 1038 238 1056 q 276 987 276 1019 q 257 937 276 956 q 205 919 238 919 z "},"à":{"ha":715,"x_min":64,"x_max":618,"o":"m 292 -12 q 125 42 185 -12 q 64 193 64 97 q 129 347 64 292 q 338 416 194 402 l 509 435 l 509 499 q 488 606 509 568 q 423 659 466 644 q 315 674 380 674 q 218 667 272 674 q 111 641 165 659 l 111 732 q 218 757 160 748 q 329 765 277 765 q 489 740 425 765 q 586 656 553 715 q 618 494 618 597 l 618 0 l 525 0 l 517 84 l 510 84 q 416 13 473 38 q 292 -12 358 -12 m 509 360 l 344 342 q 216 298 255 333 q 176 203 176 264 q 213 107 176 140 q 320 74 249 74 q 419 95 369 74 q 509 166 469 116 l 509 360 m 303 870 l 137 1122 l 257 1122 l 406 870 l 303 870 z "},"å":{"ha":715,"x_min":64,"x_max":618,"o":"m 292 -12 q 125 42 185 -12 q 64 193 64 97 q 129 347 64 292 q 338 416 194 402 l 509 435 l 509 499 q 488 606 509 568 q 423 659 466 644 q 315 674 380 674 q 218 667 272 674 q 111 641 165 659 l 111 732 q 218 757 160 748 q 329 765 277 765 q 489 740 425 765 q 586 656 553 715 q 618 494 618 597 l 618 0 l 525 0 l 517 84 l 510 84 q 416 13 473 38 q 292 -12 358 -12 m 509 360 l 344 342 q 216 298 255 333 q 176 203 176 264 q 213 107 176 140 q 320 74 249 74 q 419 95 369 74 q 509 166 469 116 l 509 360 m 355 867 q 258 905 297 867 q 219 1001 219 943 q 258 1097 219 1059 q 355 1135 297 1135 q 452 1097 414 1135 q 490 1001 490 1059 q 452 905 490 943 q 355 867 414 867 m 355 918 q 413 941 390 918 q 436 1001 436 963 q 413 1062 436 1040 q 355 1084 390 1084 q 297 1062 319 1084 q 274 1001 274 1040 q 297 941 274 963 q 355 918 319 918 z "},"ã":{"ha":715,"x_min":64,"x_max":618,"o":"m 292 -12 q 125 42 185 -12 q 64 193 64 97 q 129 347 64 292 q 338 416 194 402 l 509 435 l 509 499 q 488 606 509 568 q 423 659 466 644 q 315 674 380 674 q 218 667 272 674 q 111 641 165 659 l 111 732 q 218 757 160 748 q 329 765 277 765 q 489 740 425 765 q 586 656 553 715 q 618 494 618 597 l 618 0 l 525 0 l 517 84 l 510 84 q 416 13 473 38 q 292 -12 358 -12 m 509 360 l 344 342 q 216 298 255 333 q 176 203 176 264 q 213 107 176 140 q 320 74 249 74 q 419 95 369 74 q 509 166 469 116 l 509 360 m 454 934 q 397 944 424 934 q 344 965 369 954 q 299 983 321 975 q 254 991 277 991 q 193 978 221 991 q 140 938 166 965 l 140 1019 q 256 1065 183 1065 q 313 1055 286 1065 q 365 1035 340 1045 q 411 1016 389 1024 q 456 1008 433 1008 q 517 1021 490 1008 q 570 1061 544 1034 l 570 981 q 454 934 526 934 z "},"æ":{"ha":1150,"x_min":64,"x_max":1096,"o":"m 860 -13 q 667 26 744 -13 q 567 120 604 58 q 446 19 510 48 q 300 -12 374 -12 q 173 12 226 -12 q 92 83 120 37 q 64 193 64 128 q 93 309 64 258 q 186 388 122 359 q 354 416 250 416 l 510 416 l 510 500 q 488 606 510 568 q 423 659 466 644 q 315 674 379 674 q 218 667 272 674 q 112 641 165 659 l 112 732 q 218 757 161 749 q 326 765 274 765 q 480 740 418 765 q 572 655 541 714 q 579 640 576 648 q 658 724 610 694 q 810 765 722 765 q 963 724 899 765 q 1061 597 1027 683 q 1096 376 1096 510 l 1096 340 l 619 340 q 646 194 622 250 q 730 105 674 132 q 872 77 787 77 q 961 85 915 77 q 1058 108 1007 93 l 1058 17 q 956 -6 1005 1 q 860 -13 907 -13 m 619 416 l 989 416 q 967 567 987 510 q 905 658 945 631 q 806 685 864 685 q 706 658 748 685 q 641 568 664 631 q 619 416 620 510 m 534 194 q 510 342 514 257 l 360 342 q 251 324 292 342 q 194 274 211 306 q 176 202 176 242 q 214 107 176 140 q 322 74 251 74 q 437 101 379 74 q 534 194 490 128 z "},"b":{"ha":784,"x_min":105,"x_max":719,"o":"m 338 -13 q 218 -5 278 -13 q 105 21 158 4 l 105 1122 l 216 1122 l 216 676 l 222 676 q 310 740 257 715 q 431 765 363 765 q 575 729 510 765 q 680 610 640 692 q 719 391 719 528 q 622 87 719 187 q 338 -13 525 -13 m 346 78 q 540 149 474 78 q 606 381 606 219 q 578 556 606 494 q 505 644 551 619 q 399 669 458 669 q 298 648 347 669 q 216 582 249 627 l 216 94 q 275 83 241 88 q 346 78 310 78 z "},"c":{"ha":608,"x_min":65,"x_max":582,"o":"m 399 -13 q 217 27 292 -13 q 104 154 143 68 q 65 376 65 240 q 107 599 65 513 q 230 725 149 685 q 427 765 310 765 q 506 760 467 765 q 582 746 546 756 l 582 651 q 509 666 545 661 q 439 671 474 671 q 294 642 352 671 q 209 550 237 614 q 181 379 181 486 q 207 204 181 269 q 286 110 233 139 q 415 81 338 81 q 492 89 451 81 q 582 112 532 96 l 582 18 q 491 -6 538 2 q 399 -13 445 -13 z "},"ç":{"ha":608,"x_min":65,"x_max":582,"o":"m 399 -13 q 397 -13 397 -13 l 397 -72 q 469 -99 442 -77 q 504 -180 504 -128 q 468 -259 504 -230 q 363 -288 431 -288 q 300 -282 331 -288 q 244 -265 268 -276 l 244 -208 q 304 -228 274 -222 q 360 -234 334 -234 q 418 -220 399 -234 q 438 -176 438 -206 q 358 -117 438 -117 l 333 -117 l 333 -9 q 217 27 267 0 q 104 154 143 68 q 65 376 65 240 q 107 599 65 513 q 230 725 149 685 q 427 765 310 765 q 506 760 467 765 q 582 746 546 756 l 582 651 q 509 666 545 661 q 439 671 474 671 q 294 642 352 671 q 209 550 237 614 q 181 379 181 486 q 207 204 181 269 q 286 110 233 139 q 415 81 338 81 q 492 89 451 81 q 582 112 532 96 l 582 18 q 491 -6 538 2 q 399 -13 445 -13 z "},"d":{"ha":784,"x_min":65,"x_max":679,"o":"m 362 -13 q 213 24 280 -13 q 105 143 145 61 q 65 361 65 225 q 109 587 65 497 q 237 721 152 676 q 445 765 322 765 q 509 763 477 765 q 568 756 541 760 l 568 1122 l 679 1122 l 679 0 l 585 0 l 577 81 l 569 81 q 483 14 536 40 q 362 -13 430 -13 m 387 83 q 486 105 438 83 q 568 176 535 127 l 568 661 q 510 671 543 667 q 444 674 476 674 q 245 603 313 674 q 178 371 178 533 q 205 197 178 260 q 279 108 232 134 q 387 83 326 83 z "},"ð":{"ha":772,"x_min":65,"x_max":706,"o":"m 387 -14 q 217 27 289 -14 q 105 153 144 67 q 65 376 65 240 q 105 598 65 512 q 214 723 144 683 q 378 763 285 763 q 505 735 446 763 q 535 717 521 728 q 488 817 515 767 q 435 899 464 859 l 142 850 l 129 920 l 385 963 q 374 976 380 969 q 213 1122 306 1053 l 351 1122 q 490 988 426 1067 q 495 982 492 985 l 676 1013 l 689 942 l 542 917 q 603 813 575 867 q 679 613 652 717 q 706 405 706 509 q 667 167 706 259 q 556 30 628 74 q 387 -14 484 -14 m 387 77 q 497 107 450 77 q 568 201 543 136 q 594 374 594 267 q 568 553 594 488 q 497 647 543 619 q 386 674 450 674 q 276 647 322 674 q 204 554 229 619 q 178 378 178 489 q 204 199 178 265 q 276 105 229 133 q 387 77 322 77 z "},"e":{"ha":715,"x_min":65,"x_max":660,"o":"m 422 -13 q 225 27 305 -13 q 106 152 146 67 q 65 377 65 238 q 102 596 65 510 q 208 724 140 682 q 370 765 276 765 q 527 723 463 765 q 626 595 592 681 q 660 374 660 508 l 660 340 l 178 340 q 206 194 181 250 q 291 105 234 132 q 435 77 348 77 q 525 85 478 77 q 623 108 571 93 l 623 17 q 520 -6 569 1 q 422 -13 471 -13 m 178 416 l 553 416 q 532 567 552 510 q 469 657 510 630 q 369 685 428 685 q 267 658 310 685 q 201 568 224 631 q 178 416 180 510 z "},"é":{"ha":715,"x_min":65,"x_max":660,"o":"m 422 -13 q 225 27 305 -13 q 106 152 146 67 q 65 377 65 238 q 102 596 65 510 q 208 724 140 682 q 370 765 276 765 q 527 723 463 765 q 626 595 592 681 q 660 374 660 508 l 660 340 l 178 340 q 206 194 181 250 q 291 105 234 132 q 435 77 348 77 q 525 85 478 77 q 623 108 571 93 l 623 17 q 520 -6 569 1 q 422 -13 471 -13 m 178 416 l 553 416 q 532 567 552 510 q 469 657 510 630 q 369 685 428 685 q 267 658 310 685 q 201 568 224 631 q 178 416 180 510 m 317 870 l 467 1122 l 587 1122 l 420 870 l 317 870 z "},"ê":{"ha":715,"x_min":65,"x_max":660,"o":"m 422 -13 q 225 27 305 -13 q 106 152 146 67 q 65 377 65 238 q 102 596 65 510 q 208 724 140 682 q 370 765 276 765 q 527 723 463 765 q 626 595 592 681 q 660 374 660 508 l 660 340 l 178 340 q 206 194 181 250 q 291 105 234 132 q 435 77 348 77 q 525 85 478 77 q 623 108 571 93 l 623 17 q 520 -6 569 1 q 422 -13 471 -13 m 178 416 l 553 416 q 532 567 552 510 q 469 657 510 630 q 369 685 428 685 q 267 658 310 685 q 201 568 224 631 q 178 416 180 510 m 164 870 l 319 1122 l 419 1122 l 574 870 l 485 870 l 369 1065 l 253 870 l 164 870 z "},"ë":{"ha":715,"x_min":65,"x_max":660,"o":"m 422 -13 q 225 27 305 -13 q 106 152 146 67 q 65 377 65 238 q 102 596 65 510 q 208 724 140 682 q 370 765 276 765 q 527 723 463 765 q 626 595 592 681 q 660 374 660 508 l 660 340 l 178 340 q 206 194 181 250 q 291 105 234 132 q 435 77 348 77 q 525 85 478 77 q 623 108 571 93 l 623 17 q 520 -6 569 1 q 422 -13 471 -13 m 178 416 l 553 416 q 532 567 552 510 q 469 657 510 630 q 369 685 428 685 q 267 658 310 685 q 201 568 224 631 q 178 416 180 510 m 519 919 q 467 937 486 919 q 448 987 448 956 q 467 1038 448 1019 q 519 1056 486 1056 q 571 1038 552 1056 q 590 987 590 1019 q 571 937 590 956 q 519 919 552 919 m 219 919 q 166 937 185 919 q 147 987 147 956 q 166 1038 147 1019 q 219 1056 185 1056 q 270 1038 251 1056 q 290 987 290 1019 q 270 937 290 956 q 219 919 251 919 z "},"è":{"ha":715,"x_min":65,"x_max":660,"o":"m 422 -13 q 225 27 305 -13 q 106 152 146 67 q 65 377 65 238 q 102 596 65 510 q 208 724 140 682 q 370 765 276 765 q 527 723 463 765 q 626 595 592 681 q 660 374 660 508 l 660 340 l 178 340 q 206 194 181 250 q 291 105 234 132 q 435 77 348 77 q 525 85 478 77 q 623 108 571 93 l 623 17 q 520 -6 569 1 q 422 -13 471 -13 m 178 416 l 553 416 q 532 567 552 510 q 469 657 510 630 q 369 685 428 685 q 267 658 310 685 q 201 568 224 631 q 178 416 180 510 m 317 870 l 151 1122 l 271 1122 l 420 870 l 317 870 z "},"f":{"ha":498,"x_min":13,"x_max":531,"o":"m 155 0 l 155 662 l 13 662 l 13 753 l 155 753 l 155 867 q 186 1015 155 955 q 278 1106 217 1075 q 428 1136 339 1136 q 480 1134 454 1136 q 531 1128 506 1132 l 531 1035 q 485 1041 508 1039 q 440 1042 463 1042 q 308 1003 351 1042 q 265 872 265 965 l 265 753 l 502 753 l 502 662 l 265 662 l 265 0 l 155 0 z "},"g":{"ha":784,"x_min":65,"x_max":679,"o":"m 335 -319 q 224 -311 283 -319 q 113 -285 165 -302 l 113 -192 q 226 -219 172 -210 q 329 -228 280 -228 q 510 -175 451 -228 q 568 6 568 -123 l 568 80 l 562 80 q 475 15 528 40 q 353 -10 422 -10 q 210 27 275 -10 q 105 145 144 63 q 65 362 65 226 q 162 665 65 565 q 447 765 259 765 q 527 761 486 765 q 606 749 567 757 q 679 731 645 742 l 679 23 q 593 -240 679 -160 q 335 -319 507 -319 m 386 85 q 486 107 437 85 q 568 173 535 128 l 568 659 q 509 670 543 665 q 438 674 475 674 q 245 604 312 674 q 178 372 178 533 q 206 198 178 260 q 280 110 233 135 q 386 85 326 85 z "},"h":{"ha":790,"x_min":105,"x_max":692,"o":"m 105 0 l 105 1122 l 216 1122 l 216 669 l 222 669 q 328 741 268 717 q 455 765 388 765 q 577 739 524 765 q 662 655 631 713 q 692 499 692 597 l 692 0 l 582 0 l 582 494 q 539 628 582 591 q 424 665 495 665 q 351 655 389 665 q 278 623 314 645 q 216 565 243 601 l 216 0 l 105 0 z "},"i":{"ha":322,"x_min":83,"x_max":238,"o":"m 105 0 l 105 753 l 216 753 l 216 0 l 105 0 m 160 917 q 103 936 123 917 q 83 987 83 954 q 103 1039 83 1020 q 160 1058 123 1058 q 218 1039 198 1058 q 238 987 238 1020 q 218 936 238 954 q 160 917 198 917 z "},"ı":{"ha":322,"x_min":105,"x_max":216,"o":"m 105 0 l 105 753 l 216 753 l 216 0 l 105 0 z "},"í":{"ha":322,"x_min":105,"x_max":378,"o":"m 105 0 l 105 753 l 216 753 l 216 0 l 105 0 m 109 870 l 258 1122 l 378 1122 l 212 870 l 109 870 z "},"î":{"ha":322,"x_min":-44,"x_max":365,"o":"m 105 0 l 105 753 l 216 753 l 216 0 l 105 0 m -44 870 l 110 1122 l 210 1122 l 365 870 l 276 870 l 160 1065 l 44 870 l -44 870 z "},"ï":{"ha":322,"x_min":-61,"x_max":382,"o":"m 105 0 l 105 753 l 216 753 l 216 0 l 105 0 m 311 919 q 259 937 278 919 q 240 987 240 956 q 259 1038 240 1019 q 311 1056 278 1056 q 363 1038 344 1056 q 382 987 382 1019 q 363 937 382 956 q 311 919 344 919 m 10 919 q -42 937 -23 919 q -61 987 -61 956 q -42 1038 -61 1019 q 10 1056 -23 1056 q 62 1038 43 1056 q 81 987 81 1019 q 62 937 81 956 q 10 919 43 919 z "},"ì":{"ha":322,"x_min":-58,"x_max":216,"o":"m 105 0 l 105 753 l 216 753 l 216 0 l 105 0 m 109 870 l -58 1122 l 63 1122 l 212 870 l 109 870 z "},"j":{"ha":322,"x_min":-19,"x_max":237,"o":"m 55 -322 l -19 -272 q 52 -153 25 -212 q 92 -28 80 -94 q 105 118 105 38 l 105 753 l 216 753 l 216 124 q 200 -40 216 35 q 148 -183 183 -115 q 55 -322 113 -252 m 160 920 q 102 939 122 920 q 83 990 83 957 q 102 1042 83 1023 q 160 1060 122 1060 q 217 1042 197 1060 q 237 990 237 1023 q 217 939 237 957 q 160 920 197 920 z "},"k":{"ha":721,"x_min":105,"x_max":736,"o":"m 610 0 l 344 340 l 216 340 l 216 0 l 105 0 l 105 1122 l 216 1122 l 216 433 l 344 433 l 590 753 l 713 753 l 436 388 l 736 0 l 610 0 z "},"l":{"ha":321,"x_min":105,"x_max":216,"o":"m 105 0 l 105 1122 l 216 1122 l 216 0 l 105 0 z "},"m":{"ha":1177,"x_min":105,"x_max":1081,"o":"m 105 0 l 105 753 l 199 753 l 206 668 l 214 668 q 313 741 257 717 q 432 765 369 765 q 544 740 494 765 q 621 658 592 715 q 725 737 669 713 q 853 765 792 765 q 970 739 919 765 q 1051 655 1022 713 q 1081 499 1081 597 l 1081 0 l 969 0 l 969 494 q 930 628 969 591 q 827 666 890 666 q 759 655 795 666 q 690 618 724 644 q 646 570 665 599 q 650 501 650 538 l 650 0 l 540 0 l 540 494 q 502 628 540 591 q 401 666 464 666 q 336 656 370 666 q 272 623 303 645 q 216 563 240 600 l 216 0 l 105 0 z "},"n":{"ha":790,"x_min":105,"x_max":692,"o":"m 105 0 l 105 753 l 199 753 l 206 669 l 214 669 q 321 740 260 715 q 451 765 382 765 q 576 739 522 765 q 661 655 631 713 q 692 498 692 596 l 692 0 l 582 0 l 582 493 q 539 628 582 590 q 424 666 497 666 q 353 656 390 666 q 280 624 315 647 q 216 565 244 602 l 216 0 l 105 0 z "},"ñ":{"ha":790,"x_min":105,"x_max":692,"o":"m 105 0 l 105 753 l 199 753 l 206 669 l 214 669 q 321 740 260 715 q 451 765 382 765 q 576 739 522 765 q 661 655 631 713 q 692 498 692 596 l 692 0 l 582 0 l 582 493 q 539 628 582 590 q 424 666 497 666 q 353 656 390 666 q 280 624 315 647 q 216 565 244 602 l 216 0 l 105 0 m 499 934 q 441 944 468 934 q 389 965 414 954 q 343 983 365 975 q 299 991 322 991 q 238 978 265 991 q 184 938 210 965 l 184 1019 q 300 1065 228 1065 q 358 1055 331 1065 q 410 1035 385 1045 q 456 1016 433 1024 q 500 1008 478 1008 q 561 1021 534 1008 q 615 1061 589 1034 l 615 981 q 499 934 571 934 z "},"o":{"ha":772,"x_min":65,"x_max":707,"o":"m 386 -13 q 217 27 289 -13 q 105 154 144 68 q 65 376 65 240 q 105 598 65 512 q 216 725 144 684 q 386 765 288 765 q 556 725 484 765 q 668 598 628 684 q 707 376 707 513 q 667 155 707 241 q 555 28 627 69 q 386 -13 483 -13 m 386 77 q 497 105 450 77 q 568 198 543 133 q 594 374 594 263 q 568 554 594 488 q 496 647 543 619 q 386 674 449 674 q 276 647 322 674 q 204 555 229 619 q 178 378 178 490 q 204 199 178 265 q 276 105 229 133 q 386 77 322 77 z "},"ó":{"ha":772,"x_min":65,"x_max":707,"o":"m 386 -13 q 217 27 289 -13 q 105 154 144 68 q 65 376 65 240 q 105 598 65 512 q 216 725 144 684 q 386 765 288 765 q 556 725 484 765 q 668 598 628 684 q 707 376 707 513 q 667 155 707 241 q 555 28 627 69 q 386 -13 483 -13 m 386 77 q 497 105 450 77 q 568 198 543 133 q 594 374 594 263 q 568 554 594 488 q 496 647 543 619 q 386 674 449 674 q 276 647 322 674 q 204 555 229 619 q 178 378 178 490 q 204 199 178 265 q 276 105 229 133 q 386 77 322 77 m 335 870 l 484 1122 l 604 1122 l 438 870 l 335 870 z "},"ô":{"ha":772,"x_min":65,"x_max":707,"o":"m 386 -13 q 217 27 289 -13 q 105 154 144 68 q 65 376 65 240 q 105 598 65 512 q 216 725 144 684 q 386 765 288 765 q 556 725 484 765 q 668 598 628 684 q 707 376 707 513 q 667 155 707 241 q 555 28 627 69 q 386 -13 483 -13 m 386 77 q 497 105 450 77 q 568 198 543 133 q 594 374 594 263 q 568 554 594 488 q 496 647 543 619 q 386 674 449 674 q 276 647 322 674 q 204 555 229 619 q 178 378 178 490 q 204 199 178 265 q 276 105 229 133 q 386 77 322 77 m 181 870 l 336 1122 l 436 1122 l 591 870 l 502 870 l 386 1065 l 270 870 l 181 870 z "},"ö":{"ha":772,"x_min":65,"x_max":707,"o":"m 386 -13 q 217 27 289 -13 q 105 154 144 68 q 65 376 65 240 q 105 598 65 512 q 216 725 144 684 q 386 765 288 765 q 556 725 484 765 q 668 598 628 684 q 707 376 707 513 q 667 155 707 241 q 555 28 627 69 q 386 -13 483 -13 m 386 77 q 497 105 450 77 q 568 198 543 133 q 594 374 594 263 q 568 554 594 488 q 496 647 543 619 q 386 674 449 674 q 276 647 322 674 q 204 555 229 619 q 178 378 178 490 q 204 199 178 265 q 276 105 229 133 q 386 77 322 77 m 537 919 q 484 937 503 919 q 465 987 465 956 q 484 1038 465 1019 q 537 1056 503 1056 q 589 1038 569 1056 q 608 987 608 1019 q 589 937 608 956 q 537 919 569 919 m 236 919 q 184 937 203 919 q 165 987 165 956 q 184 1038 165 1019 q 236 1056 203 1056 q 288 1038 269 1056 q 307 987 307 1019 q 288 937 307 956 q 236 919 269 919 z "},"ò":{"ha":772,"x_min":65,"x_max":707,"o":"m 386 -13 q 217 27 289 -13 q 105 154 144 68 q 65 376 65 240 q 105 598 65 512 q 216 725 144 684 q 386 765 288 765 q 556 725 484 765 q 668 598 628 684 q 707 376 707 513 q 667 155 707 241 q 555 28 627 69 q 386 -13 483 -13 m 386 77 q 497 105 450 77 q 568 198 543 133 q 594 374 594 263 q 568 554 594 488 q 496 647 543 619 q 386 674 449 674 q 276 647 322 674 q 204 555 229 619 q 178 378 178 490 q 204 199 178 265 q 276 105 229 133 q 386 77 322 77 m 335 870 l 168 1122 l 288 1122 l 438 870 l 335 870 z "},"ø":{"ha":772,"x_min":65,"x_max":707,"o":"m 629 659 q 687 542 667 612 q 707 376 707 472 q 667 155 707 241 q 555 28 627 69 q 386 -13 483 -13 q 281 2 329 -13 q 194 48 232 17 l 157 -4 l 72 -4 l 142 94 q 85 212 106 142 q 65 376 65 282 q 105 598 65 512 q 216 725 144 684 q 386 765 288 765 q 491 751 442 765 q 577 705 540 736 l 615 758 l 699 758 l 629 659 m 386 676 q 274 648 322 676 q 202 556 227 621 q 176 378 176 490 q 186 268 176 315 q 213 188 195 221 l 523 624 q 463 664 497 651 q 386 676 428 676 m 386 76 q 498 104 451 76 q 570 197 544 132 q 596 374 596 263 q 586 486 596 439 q 559 567 577 534 l 248 129 q 309 89 274 101 q 386 76 344 76 z "},"õ":{"ha":772,"x_min":65,"x_max":707,"o":"m 386 -13 q 217 27 289 -13 q 105 154 144 68 q 65 376 65 240 q 105 598 65 512 q 216 725 144 684 q 386 765 288 765 q 556 725 484 765 q 668 598 628 684 q 707 376 707 513 q 667 155 707 241 q 555 28 627 69 q 386 -13 483 -13 m 386 77 q 497 105 450 77 q 568 198 543 133 q 594 374 594 263 q 568 554 594 488 q 496 647 543 619 q 386 674 449 674 q 276 647 322 674 q 204 555 229 619 q 178 378 178 490 q 204 199 178 265 q 276 105 229 133 q 386 77 322 77 m 485 934 q 428 944 455 934 q 376 965 401 954 q 330 983 352 975 q 285 991 308 991 q 225 978 252 991 q 171 938 197 965 l 171 1019 q 287 1065 215 1065 q 344 1055 317 1065 q 397 1035 372 1045 q 442 1016 420 1024 q 487 1008 465 1008 q 548 1021 521 1008 q 601 1061 576 1034 l 601 981 q 485 934 558 934 z "},"œ":{"ha":1234,"x_min":65,"x_max":1180,"o":"m 381 -13 q 215 27 286 -13 q 105 154 144 68 q 65 376 65 240 q 104 598 65 512 q 214 725 143 684 q 381 765 285 765 q 544 724 476 765 q 645 603 610 684 q 742 724 680 684 q 894 765 806 765 q 1047 724 983 765 q 1145 597 1111 683 q 1180 376 1180 510 l 1180 340 l 703 340 q 730 194 706 250 q 814 105 758 132 q 957 77 871 77 q 1045 85 999 77 q 1142 108 1091 93 l 1142 17 q 1040 -6 1089 1 q 944 -13 991 -13 q 751 27 828 -13 q 642 144 680 65 q 544 28 606 67 q 381 -13 475 -13 m 384 77 q 493 105 447 77 q 564 198 539 133 q 590 374 590 263 q 564 554 590 488 q 493 647 539 619 q 384 674 447 674 q 275 647 322 674 q 204 555 229 619 q 178 378 178 490 q 204 199 178 265 q 275 105 229 133 q 384 77 321 77 m 703 416 l 1073 416 q 1051 567 1071 510 q 989 658 1029 631 q 890 685 948 685 q 790 658 832 685 q 725 568 748 631 q 703 416 704 510 z "},"p":{"ha":784,"x_min":105,"x_max":719,"o":"m 105 -306 l 105 753 l 199 753 l 208 671 l 215 671 q 302 739 249 713 q 422 765 355 765 q 571 729 503 765 q 678 611 638 693 q 719 391 719 528 q 676 165 719 255 q 548 31 633 76 q 339 -13 463 -13 q 275 -10 307 -13 q 216 -3 243 -7 l 216 -306 l 105 -306 m 340 78 q 539 149 472 78 q 606 381 606 219 q 578 556 606 494 q 504 644 551 619 q 397 669 457 669 q 298 648 347 669 q 216 576 249 626 l 216 91 q 275 82 241 85 q 340 78 308 78 z "},"þ":{"ha":784,"x_min":105,"x_max":719,"o":"m 105 -306 l 105 1122 l 216 1122 l 216 675 l 222 675 q 310 740 258 715 q 431 765 363 765 q 575 729 510 765 q 680 610 641 692 q 719 391 719 528 q 676 165 719 255 q 548 31 633 76 q 339 -13 463 -13 q 275 -10 307 -13 q 216 -3 243 -7 l 216 -306 l 105 -306 m 340 78 q 539 149 472 78 q 606 381 606 219 q 578 556 606 494 q 505 644 551 619 q 399 669 458 669 q 299 648 348 669 q 216 578 249 626 l 216 91 q 275 82 241 85 q 340 78 308 78 z "},"q":{"ha":784,"x_min":65,"x_max":679,"o":"m 568 -306 l 568 76 l 562 76 q 475 12 528 37 q 353 -13 422 -13 q 209 23 274 -13 q 105 142 144 60 q 65 361 65 224 q 162 665 65 565 q 447 765 259 765 q 527 761 486 765 q 606 749 567 757 q 679 731 645 742 l 679 -306 l 568 -306 m 386 83 q 486 104 437 83 q 568 170 535 126 l 568 659 q 509 670 543 665 q 438 674 475 674 q 245 603 312 674 q 178 371 178 533 q 206 196 178 258 q 280 108 233 133 q 386 83 326 83 z "},"r":{"ha":502,"x_min":105,"x_max":494,"o":"m 105 0 l 105 753 l 198 753 l 207 653 l 214 653 q 311 734 253 706 q 434 761 370 761 q 466 760 451 761 q 494 756 480 758 l 494 653 q 462 656 478 656 q 428 657 447 657 q 352 645 392 657 q 276 610 312 634 q 216 550 241 586 l 216 0 l 105 0 z "},"s":{"ha":626,"x_min":62,"x_max":578,"o":"m 285 -13 q 176 -6 228 -13 q 76 17 124 2 l 76 106 q 182 82 131 90 q 285 75 233 75 q 427 108 383 75 q 471 202 471 142 q 444 281 471 253 q 355 322 418 308 l 253 342 q 106 416 150 365 q 62 547 62 467 q 135 704 62 642 q 360 765 208 765 q 453 760 409 765 q 538 743 497 754 l 538 653 q 450 672 492 666 q 363 677 408 677 q 248 660 291 677 q 187 614 206 643 q 168 550 168 585 q 193 476 168 506 q 281 433 218 447 l 383 413 q 532 342 487 391 q 578 208 578 292 q 503 46 578 106 q 285 -13 428 -13 z "},"ß":{"ha":966,"x_min":13,"x_max":918,"o":"m 621 -13 q 516 -6 567 -13 q 416 15 465 1 l 416 104 q 486 88 452 94 q 554 78 521 81 q 620 75 588 75 q 766 108 722 75 q 811 202 811 142 q 785 281 811 253 q 695 322 758 308 l 593 342 q 445 416 490 365 q 401 546 401 467 q 474 702 401 642 q 695 762 547 762 q 726 761 709 762 q 739 760 732 761 q 740 765 739 763 q 743 819 743 792 q 713 956 743 905 q 632 1028 683 1006 q 515 1051 580 1051 q 379 1023 435 1051 q 295 932 324 994 q 266 769 266 870 l 266 0 l 155 0 l 155 660 l 13 660 l 13 753 l 155 753 l 155 772 q 197 974 155 893 q 318 1095 240 1055 q 508 1136 397 1136 q 673 1103 601 1136 q 788 999 746 1070 q 829 815 829 928 q 824 737 829 777 q 810 668 818 697 q 765 675 790 672 q 707 677 741 677 q 589 660 633 677 q 527 614 546 643 q 508 550 508 585 q 534 476 508 506 q 621 433 559 447 l 723 413 q 873 341 828 390 q 918 208 918 292 q 843 46 918 106 q 621 -13 767 -13 z "},"t":{"ha":520,"x_min":8,"x_max":508,"o":"m 392 -13 q 213 46 277 -13 q 149 236 149 106 l 149 662 l 8 662 l 8 753 l 149 753 l 167 1028 l 260 1028 l 260 753 l 497 753 l 497 662 l 260 662 l 260 254 q 300 121 260 159 q 417 83 339 83 q 460 86 438 83 q 508 94 482 89 l 508 1 q 451 -10 481 -6 q 392 -13 422 -13 z "},"u":{"ha":783,"x_min":97,"x_max":678,"o":"m 338 -12 q 213 13 267 -12 q 128 97 159 39 q 97 253 97 156 l 97 753 l 208 753 l 208 258 q 251 124 208 162 q 362 86 294 86 q 433 97 396 86 q 505 129 470 107 q 567 187 540 151 l 567 753 l 678 753 l 678 0 l 584 0 l 576 83 l 569 83 q 463 11 522 35 q 338 -12 403 -12 z "},"ú":{"ha":783,"x_min":97,"x_max":678,"o":"m 338 -12 q 213 13 267 -12 q 128 97 159 39 q 97 253 97 156 l 97 753 l 208 753 l 208 258 q 251 124 208 162 q 362 86 294 86 q 433 97 396 86 q 505 129 470 107 q 567 187 540 151 l 567 753 l 678 753 l 678 0 l 584 0 l 576 83 l 569 83 q 463 11 522 35 q 338 -12 403 -12 m 336 870 l 485 1122 l 606 1122 l 439 870 l 336 870 z "},"û":{"ha":783,"x_min":97,"x_max":678,"o":"m 338 -12 q 213 13 267 -12 q 128 97 159 39 q 97 253 97 156 l 97 753 l 208 753 l 208 258 q 251 124 208 162 q 362 86 294 86 q 433 97 396 86 q 505 129 470 107 q 567 187 540 151 l 567 753 l 678 753 l 678 0 l 584 0 l 576 83 l 569 83 q 463 11 522 35 q 338 -12 403 -12 m 183 870 l 338 1122 l 438 1122 l 592 870 l 503 870 l 388 1065 l 272 870 l 183 870 z "},"ü":{"ha":783,"x_min":97,"x_max":678,"o":"m 338 -12 q 213 13 267 -12 q 128 97 159 39 q 97 253 97 156 l 97 753 l 208 753 l 208 258 q 251 124 208 162 q 362 86 294 86 q 433 97 396 86 q 505 129 470 107 q 567 187 540 151 l 567 753 l 678 753 l 678 0 l 584 0 l 576 83 l 569 83 q 463 11 522 35 q 338 -12 403 -12 m 538 919 q 486 937 505 919 q 467 987 467 956 q 486 1038 467 1019 q 538 1056 505 1056 q 590 1038 571 1056 q 609 987 609 1019 q 590 937 609 956 q 538 919 571 919 m 238 919 q 185 937 204 919 q 166 987 166 956 q 185 1038 166 1019 q 238 1056 204 1056 q 289 1038 270 1056 q 308 987 308 1019 q 289 937 308 956 q 238 919 270 919 z "},"ù":{"ha":783,"x_min":97,"x_max":678,"o":"m 338 -12 q 213 13 267 -12 q 128 97 159 39 q 97 253 97 156 l 97 753 l 208 753 l 208 258 q 251 124 208 162 q 362 86 294 86 q 433 97 396 86 q 505 129 470 107 q 567 187 540 151 l 567 753 l 678 753 l 678 0 l 584 0 l 576 83 l 569 83 q 463 11 522 35 q 338 -12 403 -12 m 336 870 l 169 1122 l 290 1122 l 439 870 l 336 870 z "},"v":{"ha":735,"x_min":10,"x_max":724,"o":"m 296 0 l 10 753 l 129 753 l 370 99 l 612 753 l 724 753 l 438 0 l 296 0 z "},"w":{"ha":1176,"x_min":42,"x_max":1133,"o":"m 263 0 l 42 753 l 151 753 l 333 115 l 524 753 l 656 753 l 846 118 l 1028 753 l 1133 753 l 914 0 l 783 0 l 589 644 l 394 0 l 263 0 z "},"x":{"ha":701,"x_min":11,"x_max":692,"o":"m 565 0 l 349 300 l 135 0 l 11 0 l 284 380 l 16 753 l 143 753 l 352 462 l 561 753 l 684 753 l 417 381 l 692 0 l 565 0 z "},"y":{"ha":735,"x_min":10,"x_max":724,"o":"m 212 -306 l 328 0 l 296 0 l 10 753 l 129 753 l 368 93 l 612 753 l 724 753 l 323 -306 l 212 -306 z "},"ý":{"ha":735,"x_min":10,"x_max":724,"o":"m 212 -306 l 328 0 l 296 0 l 10 753 l 129 753 l 368 93 l 612 753 l 724 753 l 323 -306 l 212 -306 m 317 870 l 466 1122 l 586 1122 l 419 870 l 317 870 z "},"ÿ":{"ha":735,"x_min":10,"x_max":724,"o":"m 212 -306 l 328 0 l 296 0 l 10 753 l 129 753 l 368 93 l 612 753 l 724 753 l 323 -306 l 212 -306 m 519 919 q 466 937 485 919 q 447 987 447 956 q 466 1038 447 1019 q 519 1056 485 1056 q 570 1038 551 1056 q 590 987 590 1019 q 570 937 590 956 q 519 919 551 919 m 218 919 q 166 937 185 919 q 147 987 147 956 q 166 1038 147 1019 q 218 1056 185 1056 q 270 1038 251 1056 q 289 987 289 1019 q 270 937 289 956 q 218 919 251 919 z "},"z":{"ha":638,"x_min":44,"x_max":601,"o":"m 44 0 l 44 69 l 452 662 l 51 662 l 51 753 l 592 753 l 592 685 l 184 92 l 601 92 l 601 0 l 44 0 z "},"ª":{"ha":603,"x_min":48,"x_max":525,"o":"m 240 413 q 99 459 150 413 q 48 580 48 504 q 102 705 48 660 q 278 760 156 749 l 422 774 l 422 824 q 404 903 422 874 q 351 943 387 932 q 259 955 315 955 q 177 948 222 955 q 89 927 133 942 l 89 1010 q 181 1031 131 1024 q 274 1038 230 1038 q 414 1017 358 1038 q 497 947 469 996 q 525 813 525 898 l 525 424 l 438 424 l 430 491 l 424 491 q 344 433 392 453 q 240 413 296 413 m 422 710 l 289 697 q 184 664 216 690 q 151 592 151 638 q 181 516 151 542 q 271 490 211 490 q 350 507 310 490 q 422 559 390 523 l 422 710 z "},"º":{"ha":655,"x_min":52,"x_max":603,"o":"m 327 413 q 127 490 202 413 q 52 726 52 566 q 127 963 52 888 q 328 1038 202 1038 q 528 963 453 1038 q 603 726 603 887 q 569 550 603 619 q 473 447 535 481 q 327 413 411 413 m 327 497 q 417 518 379 497 q 476 590 456 540 q 497 726 497 640 q 476 863 497 813 q 417 934 456 913 q 327 955 379 955 q 238 934 276 955 q 178 863 199 913 q 157 726 157 813 q 178 590 157 640 q 238 518 199 540 q 327 497 276 497 z "},"¹":{"ha":547,"x_min":96,"x_max":501,"o":"m 97 428 l 97 507 l 256 507 l 256 1014 l 96 901 l 96 989 l 290 1125 l 349 1125 l 349 507 l 501 507 l 501 428 l 97 428 z "},"²":{"ha":547,"x_min":53,"x_max":487,"o":"m 62 428 l 62 478 l 266 738 q 340 848 317 803 q 362 934 362 892 q 324 1025 362 997 q 210 1053 287 1053 q 128 1046 167 1053 q 53 1026 88 1039 l 53 1105 q 131 1124 87 1117 q 222 1131 175 1131 q 394 1086 333 1131 q 455 942 455 1041 q 429 833 455 887 q 344 704 403 779 l 188 507 l 487 507 l 487 428 l 62 428 z "},"³":{"ha":547,"x_min":49,"x_max":490,"o":"m 226 419 q 135 425 180 419 q 49 445 90 432 l 49 520 q 137 500 92 506 q 222 493 182 493 q 357 526 313 493 q 401 622 401 559 q 360 714 401 681 q 230 747 319 747 l 136 747 l 136 822 l 194 822 q 331 854 285 822 q 376 946 376 886 q 338 1029 376 1001 q 223 1058 299 1058 q 143 1051 184 1058 q 65 1031 103 1044 l 65 1106 q 143 1125 99 1118 q 232 1131 188 1131 q 406 1085 347 1131 q 466 953 466 1038 q 426 842 466 886 q 338 790 392 806 q 444 737 406 776 q 490 617 490 691 q 423 471 490 523 q 226 419 357 419 z "},"⁴":{"ha":547,"x_min":21,"x_max":529,"o":"m 21 589 l 21 641 l 271 1122 l 361 1122 l 124 664 l 350 664 l 367 888 l 434 888 l 434 664 l 529 664 l 529 589 l 434 589 l 434 428 l 350 428 l 350 589 l 21 589 z "},"⁄":{"ha":192,"x_min":-228,"x_max":419,"o":"m -228 -94 l 324 1122 l 419 1122 l -131 -94 l -228 -94 z "},"½":{"ha":1286,"x_min":96,"x_max":1226,"o":"m 97 428 l 97 507 l 256 507 l 256 1014 l 96 901 l 96 989 l 290 1125 l 349 1125 l 349 507 l 501 507 l 501 428 l 97 428 m 319 -94 l 871 1122 l 967 1122 l 416 -94 l 319 -94 m 801 -94 l 801 -44 l 1005 216 q 1078 325 1056 281 q 1101 412 1101 370 q 1063 503 1101 474 q 949 531 1026 531 q 867 524 906 531 q 792 503 827 517 l 792 583 q 870 602 826 595 q 960 609 914 609 q 1133 564 1072 609 q 1194 420 1194 519 q 1168 311 1193 365 q 1083 182 1142 257 l 926 -15 l 1226 -15 l 1226 -94 l 801 -94 z "},"¼":{"ha":1286,"x_min":96,"x_max":1268,"o":"m 97 428 l 97 507 l 256 507 l 256 1014 l 96 901 l 96 989 l 290 1125 l 349 1125 l 349 507 l 501 507 l 501 428 l 97 428 m 319 -94 l 871 1122 l 967 1122 l 416 -94 l 319 -94 m 760 67 l 760 119 l 1010 600 l 1100 600 l 863 142 l 1089 142 l 1106 365 l 1173 365 l 1173 142 l 1268 142 l 1268 67 l 1173 67 l 1173 -94 l 1089 -94 l 1089 67 l 760 67 z "},"¾":{"ha":1286,"x_min":49,"x_max":1268,"o":"m 226 419 q 135 425 180 419 q 49 445 90 432 l 49 520 q 137 500 92 506 q 222 493 182 493 q 357 526 313 493 q 401 622 401 559 q 360 714 401 681 q 230 747 319 747 l 136 747 l 136 822 l 194 822 q 331 854 285 822 q 376 946 376 886 q 338 1029 376 1001 q 223 1058 299 1058 q 143 1051 184 1058 q 65 1031 103 1044 l 65 1106 q 143 1125 99 1118 q 232 1131 188 1131 q 406 1085 347 1131 q 466 953 466 1038 q 426 842 466 886 q 338 790 392 806 q 444 737 406 776 q 490 617 490 691 q 423 471 490 523 q 226 419 357 419 m 319 -94 l 871 1122 l 967 1122 l 416 -94 l 319 -94 m 760 67 l 760 119 l 1010 600 l 1100 600 l 863 142 l 1089 142 l 1106 365 l 1173 365 l 1173 142 l 1268 142 l 1268 67 l 1173 67 l 1173 -94 l 1089 -94 l 1089 67 l 760 67 z "},".":{"ha":320,"x_min":81,"x_max":240,"o":"m 160 -9 q 102 12 124 -9 q 81 68 81 33 q 102 124 81 103 q 160 145 124 145 q 218 124 197 145 q 240 68 240 103 q 218 12 240 33 q 160 -9 196 -9 z "},",":{"ha":320,"x_min":81,"x_max":240,"o":"m 104 -219 q 142 -98 128 -154 q 156 -8 153 -53 q 102 13 123 -8 q 81 69 81 34 q 101 125 81 104 q 158 145 122 145 q 218 120 197 145 q 240 44 240 96 q 220 -95 240 -28 q 170 -219 201 -163 l 104 -219 z "},":":{"ha":320,"x_min":81,"x_max":240,"o":"m 160 -9 q 102 12 124 -9 q 81 68 81 33 q 102 124 81 103 q 160 145 124 145 q 218 124 197 145 q 240 68 240 103 q 218 12 240 33 q 160 -9 196 -9 m 160 608 q 102 628 124 608 q 81 685 81 649 q 102 741 81 720 q 160 762 124 762 q 218 741 197 762 q 240 685 240 719 q 218 629 240 650 q 160 608 196 608 z "},";":{"ha":320,"x_min":81,"x_max":240,"o":"m 104 -219 q 142 -98 128 -154 q 156 -8 153 -53 q 102 13 123 -8 q 81 69 81 34 q 101 125 81 104 q 158 145 122 145 q 218 120 197 145 q 240 44 240 96 q 220 -95 240 -28 q 170 -219 201 -163 l 104 -219 m 160 608 q 102 628 124 608 q 81 685 81 649 q 102 741 81 720 q 160 762 124 762 q 218 741 197 762 q 240 685 240 719 q 218 629 240 650 q 160 608 196 608 z "},"…":{"ha":933,"x_min":81,"x_max":853,"o":"m 160 -9 q 102 12 124 -9 q 81 68 81 33 q 102 124 81 103 q 160 145 124 145 q 218 124 197 145 q 240 68 240 103 q 218 12 240 33 q 160 -9 196 -9 m 467 -9 q 409 12 431 -9 q 387 68 387 33 q 408 124 387 103 q 467 145 430 145 q 525 124 503 145 q 547 68 547 103 q 524 12 547 33 q 467 -9 502 -9 m 773 -9 q 715 12 737 -9 q 693 68 693 33 q 715 124 693 103 q 773 145 736 145 q 831 124 809 145 q 853 68 853 103 q 831 12 853 33 q 773 -9 808 -9 z "},"!":{"ha":348,"x_min":94,"x_max":254,"o":"m 139 258 l 115 637 l 115 1028 l 233 1028 l 233 637 l 210 258 l 139 258 m 174 -9 q 116 11 138 -9 q 94 65 94 32 q 116 120 94 100 q 174 141 138 141 q 232 120 210 141 q 254 65 254 99 q 232 11 254 32 q 174 -9 210 -9 z "},"¡":{"ha":348,"x_min":94,"x_max":254,"o":"m 139 491 l 210 491 l 233 115 l 233 -264 l 115 -264 l 115 115 l 139 491 m 174 763 q 232 742 210 763 q 254 686 254 721 q 232 630 254 651 q 174 608 210 608 q 116 630 138 608 q 94 686 94 651 q 116 742 94 722 q 174 763 138 763 z "},"?":{"ha":628,"x_min":27,"x_max":587,"o":"m 247 250 l 227 533 q 377 596 322 562 q 454 673 431 630 q 476 772 476 716 q 420 903 476 858 q 252 948 364 948 q 139 939 195 948 q 27 910 82 929 l 27 1003 q 99 1023 60 1015 q 179 1036 138 1032 q 262 1041 221 1041 q 503 973 420 1041 q 587 779 587 904 q 561 650 587 706 q 477 552 535 594 q 328 474 420 509 l 317 250 l 247 250 m 282 -9 q 224 11 246 -9 q 202 65 202 32 q 224 120 202 100 q 282 141 246 141 q 340 120 318 141 q 362 65 362 99 q 340 12 362 33 q 282 -9 319 -9 z "},"¿":{"ha":628,"x_min":41,"x_max":600,"o":"m 381 503 l 401 221 q 251 158 306 192 q 174 82 197 124 q 151 -15 151 40 q 207 -141 151 -97 q 376 -185 264 -185 q 490 -176 433 -185 q 600 -147 547 -166 l 600 -240 q 529 -260 568 -252 q 449 -273 490 -269 q 366 -278 407 -278 q 124 -210 208 -278 q 41 -22 41 -142 q 67 105 41 50 q 150 202 93 160 q 300 280 207 244 l 310 503 l 381 503 m 346 763 q 403 742 381 763 q 426 688 426 722 q 404 634 426 654 q 346 613 382 613 q 288 634 310 613 q 266 688 266 655 q 288 742 266 721 q 346 763 310 763 z "},"·":{"ha":320,"x_min":81,"x_max":240,"o":"m 160 311 q 102 332 124 311 q 81 388 81 353 q 102 444 81 424 q 160 465 124 465 q 218 444 197 465 q 240 388 240 423 q 218 332 240 353 q 160 311 196 311 z "},"•":{"ha":494,"x_min":81,"x_max":413,"o":"m 247 222 q 162 244 200 222 q 102 303 124 265 q 81 389 81 340 q 102 475 81 438 q 162 534 124 513 q 247 556 200 556 q 332 534 294 556 q 391 475 369 513 q 413 389 413 438 q 391 303 413 340 q 332 244 369 265 q 247 222 294 222 z "},"*":{"ha":638,"x_min":21,"x_max":617,"o":"m 360 822 l 454 719 l 524 623 l 458 574 l 388 670 l 319 794 l 250 670 l 180 574 l 113 623 l 184 719 l 277 822 l 142 849 l 21 888 l 47 965 l 167 926 l 294 868 l 278 1007 l 278 1122 l 360 1122 l 360 1007 l 344 868 l 471 926 l 592 965 l 617 888 l 495 849 l 360 822 z "},"#":{"ha":803,"x_min":69,"x_max":734,"o":"m 434 0 l 467 317 l 295 317 l 263 0 l 171 0 l 204 317 l 69 317 l 69 408 l 213 408 l 235 620 l 69 620 l 69 710 l 245 710 l 278 1028 l 369 1028 l 336 710 l 508 710 l 541 1028 l 632 1028 l 599 710 l 734 710 l 734 620 l 590 620 l 568 408 l 734 408 l 734 317 l 558 317 l 525 0 l 434 0 m 305 408 l 476 408 l 499 620 l 327 620 l 305 408 z "},"/":{"ha":428,"x_min":0,"x_max":428,"o":"m 0 -167 l 318 1122 l 428 1122 l 110 -167 l 0 -167 z "},"\\":{"ha":430,"x_min":0,"x_max":430,"o":"m 319 -167 l 0 1122 l 111 1122 l 430 -167 l 319 -167 z "},"(":{"ha":458,"x_min":87,"x_max":444,"o":"m 324 -306 q 143 28 200 -153 q 87 408 87 208 q 143 789 87 608 q 324 1122 200 970 l 444 1122 q 305 900 358 1015 q 227 663 251 785 q 202 408 202 540 q 227 154 202 277 q 305 -83 251 31 q 444 -306 358 -198 l 324 -306 z "},")":{"ha":458,"x_min":14,"x_max":371,"o":"m 14 -306 q 153 -83 99 -198 q 231 154 206 31 q 256 408 256 277 q 231 663 256 540 q 153 900 206 785 q 14 1122 99 1015 l 133 1122 q 315 789 258 970 q 371 408 371 608 q 315 28 371 208 q 133 -306 258 -153 l 14 -306 z "},"{":{"ha":485,"x_min":25,"x_max":510,"o":"m 414 -319 q 223 -259 288 -319 q 159 -77 159 -198 l 159 272 q 130 360 159 333 q 44 388 101 388 l 25 388 l 25 480 l 44 480 q 130 508 101 480 q 159 595 159 535 l 159 894 q 223 1075 159 1015 q 414 1136 288 1136 q 466 1134 441 1136 q 510 1128 492 1132 l 510 1042 l 426 1042 q 309 1007 348 1042 q 270 894 270 973 l 270 601 q 236 480 270 522 q 163 434 211 448 q 236 388 211 420 q 270 266 270 345 l 270 -78 q 309 -190 270 -156 q 426 -225 348 -225 l 510 -225 l 510 -312 q 466 -317 492 -315 q 414 -319 441 -319 z "},"}":{"ha":485,"x_min":-25,"x_max":460,"o":"m 72 -319 q 19 -317 44 -319 q -25 -312 -6 -315 l -25 -225 l 60 -225 q 177 -190 138 -225 q 215 -78 215 -156 l 215 266 q 250 388 215 345 q 324 434 276 420 q 250 480 276 448 q 215 601 215 522 l 215 894 q 177 1007 215 973 q 60 1042 138 1042 l -25 1042 l -25 1128 q 19 1134 -6 1132 q 72 1136 44 1136 q 263 1075 199 1136 q 326 894 326 1015 l 326 595 q 356 508 326 535 q 441 480 385 480 l 460 480 l 460 388 l 441 388 q 356 360 385 388 q 326 272 326 333 l 326 -77 q 263 -259 326 -198 q 72 -319 199 -319 z "},"[":{"ha":458,"x_min":131,"x_max":483,"o":"m 131 -306 l 131 1122 l 483 1122 l 483 1030 l 242 1030 l 242 -213 l 481 -213 l 481 -306 l 131 -306 z "},"]":{"ha":458,"x_min":-25,"x_max":326,"o":"m -24 -306 l -24 -213 l 215 -213 l 215 1030 l -25 1030 l -25 1122 l 326 1122 l 326 -306 l -24 -306 z "},"-":{"ha":583,"x_min":103,"x_max":479,"o":"m 103 344 l 103 438 l 479 438 l 479 344 l 103 344 z "},"­":{"ha":583,"x_min":103,"x_max":479,"o":"m 103 344 l 103 438 l 479 438 l 479 344 l 103 344 z "},"–":{"ha":625,"x_min":0,"x_max":625,"o":"m 0 348 l 0 433 l 625 433 l 625 348 l 0 348 z "},"—":{"ha":1250,"x_min":0,"x_max":1250,"o":"m 0 348 l 0 433 l 1250 433 l 1250 348 l 0 348 z "},"_":{"ha":779,"x_min":64,"x_max":715,"o":"m 64 -92 l 64 0 l 715 0 l 715 -92 l 64 -92 z "},"‚":{"ha":320,"x_min":81,"x_max":240,"o":"m 104 -219 q 142 -98 128 -154 q 156 -8 153 -53 q 102 13 123 -8 q 81 69 81 34 q 101 125 81 104 q 158 145 122 145 q 218 120 197 145 q 240 44 240 96 q 220 -95 240 -28 q 170 -219 201 -163 l 104 -219 z "},"„":{"ha":568,"x_min":81,"x_max":488,"o":"m 104 -219 q 142 -98 128 -154 q 156 -8 153 -53 q 102 13 123 -8 q 81 69 81 34 q 101 125 81 104 q 158 145 122 145 q 218 120 197 145 q 240 44 240 96 q 220 -95 240 -28 q 170 -219 201 -163 l 104 -219 m 352 -219 q 390 -98 376 -154 q 403 -8 401 -53 q 350 13 371 -8 q 328 69 328 34 q 349 125 328 104 q 406 145 370 145 q 466 120 444 145 q 488 44 488 96 q 468 -95 488 -28 q 418 -219 449 -163 l 352 -219 z "},"“":{"ha":568,"x_min":81,"x_max":488,"o":"m 164 758 q 102 782 124 758 q 81 859 81 807 q 100 999 81 931 q 150 1122 120 1067 l 216 1122 q 178 1001 192 1058 q 165 912 167 957 q 218 891 197 910 q 240 834 240 870 q 219 778 240 799 q 164 758 198 758 m 412 758 q 350 782 372 758 q 328 859 328 807 q 348 999 328 931 q 398 1122 368 1067 l 464 1122 q 426 1001 440 1058 q 413 912 415 957 q 466 891 445 910 q 488 834 488 870 q 467 778 488 799 q 412 758 446 758 z "},"”":{"ha":568,"x_min":81,"x_max":488,"o":"m 104 767 q 142 888 128 832 q 156 977 153 932 q 102 998 123 978 q 81 1054 81 1019 q 101 1110 81 1090 q 158 1131 122 1131 q 218 1107 197 1131 q 240 1030 240 1082 q 220 890 240 958 q 170 767 201 822 l 104 767 m 352 767 q 390 888 376 832 q 403 977 401 932 q 350 998 371 978 q 328 1054 328 1019 q 349 1110 328 1090 q 406 1131 370 1131 q 466 1107 444 1131 q 488 1030 488 1082 q 468 890 488 958 q 418 767 449 822 l 352 767 z "},"‘":{"ha":320,"x_min":81,"x_max":240,"o":"m 164 758 q 102 782 124 758 q 81 859 81 807 q 100 999 81 931 q 150 1122 120 1067 l 216 1122 q 178 1001 192 1058 q 165 912 167 957 q 218 891 197 910 q 240 834 240 870 q 219 778 240 799 q 164 758 198 758 z "},"’":{"ha":320,"x_min":81,"x_max":240,"o":"m 104 767 q 142 888 128 832 q 156 977 153 932 q 102 998 123 978 q 81 1054 81 1019 q 101 1110 81 1090 q 158 1131 122 1131 q 218 1107 197 1131 q 240 1030 240 1082 q 220 890 240 958 q 170 767 201 822 l 104 767 z "},"«":{"ha":699,"x_min":78,"x_max":649,"o":"m 254 95 l 78 391 l 254 686 l 369 686 l 193 391 l 369 95 l 254 95 m 534 95 l 358 391 l 534 686 l 649 686 l 473 391 l 649 95 l 534 95 z "},"»":{"ha":699,"x_min":50,"x_max":622,"o":"m 50 95 l 226 391 l 50 686 l 165 686 l 342 391 l 165 95 l 50 95 m 330 95 l 506 391 l 330 686 l 445 686 l 622 391 l 445 95 l 330 95 z "},"‹":{"ha":419,"x_min":78,"x_max":369,"o":"m 254 95 l 78 391 l 254 686 l 369 686 l 193 391 l 369 95 l 254 95 z "},"›":{"ha":419,"x_min":50,"x_max":342,"o":"m 50 95 l 226 391 l 50 686 l 165 686 l 342 391 l 165 95 l 50 95 z "},"\"":{"ha":525,"x_min":88,"x_max":437,"o":"m 112 635 l 88 1122 l 203 1122 l 179 635 l 112 635 m 346 635 l 322 1122 l 437 1122 l 413 635 l 346 635 z "},"'":{"ha":291,"x_min":88,"x_max":203,"o":"m 112 635 l 88 1122 l 203 1122 l 179 635 l 112 635 z "}," ":{"ha":340,"x_min":0,"x_max":0,"o":""}," ":{"ha":340,"x_min":0,"x_max":0,"o":""}," ":{"ha":278,"x_min":0,"x_max":0,"o":""},"​":{"ha":0,"x_min":0,"x_max":0,"o":""},"\r":{"ha":340,"x_min":0,"x_max":0,"o":""},"¢":{"ha":612,"x_min":65,"x_max":582,"o":"m 342 -167 l 342 -10 q 217 27 272 -2 q 104 154 143 68 q 65 376 65 240 q 107 599 65 513 q 230 725 149 685 q 342 759 279 749 l 342 920 l 440 920 l 440 765 q 506 760 474 765 q 582 746 544 756 l 582 651 q 508 666 544 661 q 437 671 472 671 q 293 642 350 671 q 208 550 236 614 q 181 379 181 486 q 207 204 181 269 q 286 110 233 139 q 415 81 338 81 q 492 89 451 81 q 582 112 532 96 l 582 18 q 492 -6 538 2 q 440 -12 466 -10 l 440 -167 l 342 -167 z "},"¤":{"ha":803,"x_min":70,"x_max":733,"o":"m 668 183 l 597 256 l 545 322 q 521 306 534 313 q 401 276 469 276 q 282 306 333 276 q 258 321 269 313 l 206 256 l 135 183 l 71 248 l 144 318 l 211 372 q 201 389 206 380 q 172 514 172 442 q 201 638 172 585 q 211 656 206 647 l 144 710 l 70 780 l 134 844 l 205 772 l 258 706 q 282 722 269 714 q 401 751 333 751 q 521 722 469 751 q 545 706 534 714 l 599 772 l 669 844 l 733 780 l 659 710 l 592 656 q 602 638 597 647 q 632 514 632 585 q 602 389 632 442 q 592 372 597 380 l 659 318 l 732 248 l 668 183 m 401 348 q 513 391 470 348 q 556 514 556 435 q 516 633 556 587 q 403 680 476 680 q 290 636 333 680 q 247 514 247 592 q 290 392 247 436 q 401 348 333 348 z "},"$":{"ha":738,"x_min":51,"x_max":687,"o":"m 317 -167 l 317 -13 q 193 -3 258 -12 q 67 28 127 8 l 67 124 q 155 101 110 110 q 240 87 199 92 q 319 83 282 83 q 462 104 406 83 q 545 168 518 126 q 572 272 572 210 q 526 391 572 350 q 369 462 480 433 l 313 476 q 117 577 182 510 q 51 756 51 645 q 144 965 51 889 q 317 1033 208 1017 l 317 1194 l 422 1194 l 422 1041 q 536 1033 478 1040 q 642 1010 594 1025 l 642 913 q 533 938 589 930 q 424 945 478 945 q 277 924 334 945 q 192 861 219 902 q 165 763 165 820 q 208 645 165 687 q 354 576 250 603 l 410 562 q 566 500 505 538 q 657 407 627 462 q 687 278 687 353 q 644 120 687 185 q 518 22 601 56 q 422 -6 475 3 l 422 -167 l 317 -167 z "},"€":{"ha":900,"x_min":52,"x_max":872,"o":"m 639 -13 q 448 15 533 -13 q 301 105 362 43 q 207 267 240 167 q 184 365 192 312 l 52 365 l 52 440 l 176 440 q 174 512 174 475 q 178 601 174 559 l 52 601 l 52 677 l 188 677 q 231 815 202 755 q 395 986 289 931 q 650 1041 502 1041 q 764 1033 710 1041 q 872 1011 819 1026 l 872 915 q 764 938 818 931 q 654 945 710 945 q 456 903 537 945 q 333 767 374 862 q 305 677 315 728 l 749 677 l 749 601 l 294 601 q 290 515 290 560 q 292 440 290 476 l 749 440 l 749 365 l 301 365 q 333 257 313 302 q 456 123 376 163 q 647 83 535 83 q 758 92 704 83 q 872 121 811 101 l 872 25 q 762 -3 821 7 q 639 -13 703 -13 z "},"£":{"ha":880,"x_min":53,"x_max":829,"o":"m 53 0 l 53 94 l 207 94 l 207 476 l 53 476 l 53 565 l 207 565 l 207 724 q 301 963 207 884 q 579 1041 395 1041 q 695 1033 637 1041 q 801 1010 753 1025 l 801 913 q 693 938 749 930 q 583 945 638 945 q 434 923 493 945 q 346 854 375 901 q 317 727 317 806 l 317 565 l 678 565 l 678 476 l 317 476 l 317 94 l 829 94 l 829 0 l 53 0 z "},"¥":{"ha":843,"x_min":-6,"x_max":847,"o":"m 365 0 l 365 208 l 145 208 l 145 283 l 365 283 l 365 444 l 145 444 l 145 520 l 324 520 l -6 1028 l 118 1028 l 424 556 l 730 1028 l 847 1028 l 519 520 l 699 520 l 699 444 l 478 444 l 478 283 l 699 283 l 699 208 l 478 208 l 478 0 l 365 0 z "},"∕":{"ha":428,"x_min":41,"x_max":405,"o":"m 41 0 l 294 1028 l 405 1028 l 151 0 l 41 0 z "},"+":{"ha":747,"x_min":103,"x_max":644,"o":"m 326 247 l 326 483 l 103 483 l 103 573 l 326 573 l 326 808 l 421 808 l 421 573 l 644 573 l 644 483 l 421 483 l 421 247 l 326 247 z "},"−":{"ha":747,"x_min":103,"x_max":644,"o":"m 103 483 l 103 573 l 644 573 l 644 483 l 103 483 z "},"×":{"ha":694,"x_min":82,"x_max":613,"o":"m 145 263 l 82 326 l 284 528 l 82 730 l 145 793 l 347 591 l 549 793 l 613 730 l 410 528 l 613 326 l 549 263 l 347 465 l 145 263 z "},"÷":{"ha":747,"x_min":103,"x_max":644,"o":"m 103 483 l 103 573 l 644 573 l 644 483 l 103 483 m 374 208 q 319 227 340 208 q 299 280 299 247 q 319 333 299 313 q 374 353 340 353 q 428 333 408 353 q 449 280 449 313 q 428 227 449 247 q 374 208 407 208 m 374 703 q 319 722 340 703 q 299 775 299 742 q 319 828 299 808 q 374 848 340 848 q 428 828 408 848 q 449 775 449 808 q 428 723 449 742 q 374 703 407 703 z "},"=":{"ha":747,"x_min":103,"x_max":644,"o":"m 103 619 l 103 710 l 644 710 l 644 619 l 103 619 m 103 346 l 103 436 l 644 436 l 644 346 l 103 346 z "},">":{"ha":747,"x_min":103,"x_max":644,"o":"m 103 250 l 103 344 l 547 528 l 103 711 l 103 806 l 644 578 l 644 478 l 103 250 z "},"<":{"ha":747,"x_min":103,"x_max":644,"o":"m 644 250 l 103 478 l 103 578 l 644 806 l 644 711 l 201 528 l 644 344 l 644 250 z "},"±":{"ha":747,"x_min":103,"x_max":644,"o":"m 326 234 l 326 464 l 103 464 l 103 554 l 326 554 l 326 784 l 421 784 l 421 554 l 644 554 l 644 464 l 421 464 l 421 234 l 326 234 m 103 0 l 103 90 l 644 90 l 644 0 l 103 0 z "},"~":{"ha":747,"x_min":103,"x_max":644,"o":"m 499 440 q 426 454 461 440 q 360 483 392 468 q 302 509 330 497 q 247 521 275 521 q 170 502 205 521 q 103 445 135 483 l 103 545 q 248 610 156 610 q 321 596 287 610 q 388 566 356 582 q 445 540 417 552 q 500 528 472 528 q 577 547 542 528 q 644 604 613 566 l 644 504 q 499 440 592 440 z "},"¬":{"ha":926,"x_min":103,"x_max":829,"o":"m 735 135 l 735 483 l 103 483 l 103 573 l 829 573 l 829 135 l 735 135 z "},"^":{"ha":803,"x_min":67,"x_max":737,"o":"m 67 514 l 342 1028 l 460 1028 l 737 514 l 623 514 l 401 934 l 181 514 l 67 514 z "},"µ":{"ha":783,"x_min":97,"x_max":678,"o":"m 355 -12 q 244 13 291 -12 q 208 42 224 24 l 208 -306 l 97 -306 l 97 753 l 208 753 l 208 258 q 251 124 208 162 q 362 86 294 86 q 433 97 396 86 q 505 129 470 107 q 567 187 540 151 l 567 753 l 678 753 l 678 0 l 584 0 l 576 83 l 569 83 q 470 11 526 35 q 355 -12 415 -12 z "},"%":{"ha":1282,"x_min":72,"x_max":1210,"o":"m 367 0 l 818 1028 l 915 1028 l 465 0 l 367 0 m 308 399 q 186 432 239 399 q 102 535 133 465 q 72 720 72 606 q 102 905 72 834 q 185 1008 132 976 q 308 1041 238 1041 q 432 1008 378 1041 q 515 905 485 976 q 545 720 545 834 q 515 535 545 606 q 431 432 485 465 q 308 399 378 399 m 308 478 q 383 500 351 478 q 433 575 415 522 q 451 719 451 628 q 433 864 451 810 q 383 939 415 917 q 308 962 351 962 q 234 940 266 962 q 184 865 202 917 q 166 721 166 812 q 184 577 166 630 q 234 501 202 524 q 308 478 266 478 m 974 -12 q 851 20 904 -12 q 767 123 797 53 q 738 308 738 194 q 767 493 738 423 q 850 597 797 564 q 974 629 903 629 q 1097 597 1044 629 q 1180 493 1150 564 q 1210 308 1210 423 q 1180 123 1210 194 q 1097 20 1150 53 q 974 -12 1043 -12 m 974 66 q 1048 88 1016 66 q 1098 163 1080 110 q 1117 307 1117 216 q 1098 452 1117 399 q 1048 528 1080 506 q 974 550 1016 550 q 899 528 931 550 q 849 453 867 506 q 831 309 831 400 q 849 165 831 218 q 899 89 867 112 q 974 66 931 66 z "},"↑":{"ha":951,"x_min":103,"x_max":848,"o":"m 430 125 l 430 769 l 161 501 l 103 559 l 476 931 l 848 559 l 790 501 l 522 769 l 522 125 l 430 125 z "},"↓":{"ha":951,"x_min":103,"x_max":848,"o":"m 476 125 l 103 498 l 161 556 l 430 288 l 430 931 l 522 931 l 522 288 l 790 556 l 848 498 l 476 125 z "},"@":{"ha":1331,"x_min":73,"x_max":1258,"o":"m 698 -319 q 357 -248 496 -319 q 145 -27 217 -177 q 73 361 73 124 q 143 747 73 597 q 348 969 214 897 q 670 1040 481 1040 q 992 971 860 1040 q 1190 760 1123 901 q 1258 401 1258 618 q 1225 160 1258 251 q 1135 28 1192 69 q 1009 -12 1079 -12 q 903 15 944 -12 q 845 89 863 42 l 837 89 q 744 13 802 39 q 618 -12 685 -12 q 451 42 512 -12 q 390 193 390 97 q 454 347 390 292 q 658 415 518 401 l 835 435 l 835 498 q 814 603 835 565 q 750 656 792 640 q 644 671 707 671 q 548 663 601 671 q 442 635 495 654 l 442 726 q 549 752 490 743 q 658 762 607 762 q 816 737 752 762 q 912 653 879 712 q 944 494 944 595 l 944 178 q 965 94 944 119 q 1029 69 986 69 q 1099 99 1067 69 q 1151 200 1131 128 q 1171 395 1171 271 q 1139 651 1171 544 q 1045 826 1108 758 q 888 926 982 894 q 670 958 794 958 q 453 925 547 958 q 295 821 359 892 q 199 637 231 750 q 166 363 166 524 q 199 86 166 201 q 299 -100 233 -28 q 465 -205 365 -172 q 698 -237 565 -237 q 836 -228 769 -237 q 973 -199 903 -218 l 973 -281 q 841 -309 911 -299 q 698 -319 772 -319 m 835 361 l 665 342 q 541 299 581 333 q 502 204 502 266 q 539 107 502 140 q 646 74 576 74 q 745 95 694 74 q 835 167 797 117 l 835 361 z "},"&":{"ha":1039,"x_min":96,"x_max":1039,"o":"m 983 -14 l 803 123 q 688 31 758 64 q 471 -12 598 -12 q 263 24 347 -12 q 138 127 180 61 q 96 280 96 193 q 119 400 96 346 q 185 497 142 455 q 270 555 222 531 q 223 635 238 596 q 203 747 203 688 q 293 964 203 887 q 569 1041 384 1041 q 659 1036 617 1041 q 738 1022 701 1031 l 738 924 q 658 940 699 935 q 574 945 617 945 q 426 922 483 945 q 343 854 369 899 q 317 746 317 810 q 331 663 317 701 q 382 584 345 625 q 486 489 419 542 l 772 272 q 781 367 781 315 q 773 460 781 411 q 751 554 766 508 l 847 554 q 868 460 861 508 q 874 367 874 412 q 851 212 874 280 l 1039 69 l 983 -14 m 731 178 l 431 406 q 325 494 368 453 q 244 418 273 463 q 210 292 210 365 q 239 178 210 226 q 328 102 268 129 q 481 75 388 75 q 641 105 574 75 q 731 178 696 130 z "},"¶":{"ha":856,"x_min":62,"x_max":739,"o":"m 474 0 l 474 342 q 428 338 450 340 q 379 337 406 337 q 139 427 216 337 q 62 688 62 517 q 140 955 62 870 q 372 1039 218 1039 q 471 1036 423 1039 q 561 1028 519 1033 l 561 0 l 474 0 m 651 0 l 651 1028 l 739 1028 l 739 0 l 651 0 z "},"§":{"ha":705,"x_min":83,"x_max":622,"o":"m 306 -13 q 201 -6 253 -13 q 101 15 150 1 l 101 101 q 206 79 157 85 q 306 72 256 72 q 416 87 374 72 q 478 131 458 102 q 497 199 497 159 q 470 278 497 251 q 381 319 443 306 l 269 342 q 127 414 172 364 q 83 545 83 464 q 107 640 83 597 q 152 692 125 669 q 147 697 149 694 q 101 822 101 746 q 133 934 101 885 q 232 1011 165 983 q 402 1040 299 1040 q 492 1034 449 1040 q 576 1019 535 1029 l 576 933 q 491 950 530 945 q 408 954 451 954 q 289 937 333 954 q 225 891 244 920 q 206 828 206 863 q 231 753 206 782 q 319 710 256 724 l 432 687 q 577 616 533 665 q 622 485 622 567 q 597 387 622 429 q 553 335 580 358 q 557 333 556 334 q 602 206 602 285 q 527 46 602 105 q 306 -13 453 -13 m 222 648 q 194 613 204 632 q 178 551 178 584 q 205 472 178 503 q 298 425 232 440 l 410 402 q 483 380 451 393 q 510 413 500 395 q 526 476 526 440 q 498 560 526 530 q 403 604 469 590 l 292 627 q 222 648 253 635 z "},"©":{"ha":1182,"x_min":73,"x_max":1108,"o":"m 591 -15 q 319 51 435 -15 q 138 236 203 117 q 73 514 73 355 q 138 792 73 673 q 319 977 203 911 q 591 1043 435 1043 q 863 977 747 1043 q 1044 792 979 911 q 1108 514 1108 673 q 1044 236 1108 355 q 863 51 979 117 q 591 -15 747 -15 m 621 225 q 419 297 496 225 q 343 509 343 369 q 420 720 343 646 q 637 794 497 794 q 705 790 673 794 q 770 776 738 786 l 770 697 q 708 710 738 706 q 642 715 677 715 q 488 665 541 715 q 434 511 434 615 q 486 356 434 406 q 629 305 538 305 q 693 310 659 305 q 770 331 728 316 l 770 252 q 700 232 737 238 q 621 225 663 225 m 591 58 q 825 114 726 58 q 980 273 925 171 q 1034 514 1034 376 q 980 755 1034 652 q 825 914 925 857 q 591 970 726 970 q 357 914 456 970 q 202 755 257 857 q 148 514 148 652 q 202 273 148 376 q 357 114 257 171 q 591 58 456 58 z "},"®":{"ha":1043,"x_min":98,"x_max":945,"o":"m 522 186 q 300 240 396 186 q 151 390 205 294 q 98 613 98 486 q 151 835 98 739 q 300 986 205 932 q 522 1040 396 1040 q 743 986 647 1040 q 892 835 838 932 q 945 613 945 739 q 892 390 945 486 q 743 240 838 294 q 522 186 647 186 m 522 248 q 711 293 630 248 q 836 420 792 338 q 880 613 880 502 q 836 805 880 723 q 711 933 792 888 q 522 978 630 978 q 333 933 413 978 q 208 805 252 888 q 163 613 163 723 q 208 420 163 502 q 333 293 252 338 q 522 248 413 248 m 633 417 l 530 567 q 513 567 522 567 l 440 567 l 438 417 l 375 417 l 375 828 l 513 828 q 642 794 599 828 q 686 697 686 760 q 643 600 686 633 q 595 576 624 585 l 704 417 l 633 417 m 440 622 l 524 622 q 623 697 623 622 q 524 772 623 772 l 440 772 l 440 622 z "},"™":{"ha":1410,"x_min":10,"x_max":1298,"o":"m 621 333 l 621 1028 l 733 1028 l 961 528 l 1187 1028 l 1298 1028 l 1298 333 l 1210 333 l 1210 890 l 1000 431 l 919 431 l 709 883 l 709 333 l 621 333 m 235 333 l 235 948 l 10 948 l 10 1028 l 555 1028 l 555 948 l 328 948 l 328 333 l 235 333 z "},"°":{"ha":680,"x_min":98,"x_max":582,"o":"m 340 558 q 215 589 269 558 q 129 675 160 620 q 98 799 98 729 q 129 923 98 869 q 215 1009 160 978 q 340 1040 269 1040 q 465 1009 410 1040 q 551 923 519 978 q 582 799 582 869 q 551 675 582 729 q 465 589 519 620 q 340 558 410 558 m 340 633 q 457 678 411 633 q 502 799 502 723 q 457 920 502 876 q 340 964 411 964 q 224 920 269 964 q 178 799 178 876 q 224 678 178 723 q 340 633 269 633 z "},"′":{"ha":291,"x_min":88,"x_max":203,"o":"m 112 635 l 88 1122 l 203 1122 l 179 635 l 112 635 z "},"″":{"ha":525,"x_min":88,"x_max":437,"o":"m 112 635 l 88 1122 l 203 1122 l 179 635 l 112 635 m 346 635 l 322 1122 l 437 1122 l 413 635 l 346 635 z "},"|":{"ha":338,"x_min":117,"x_max":220,"o":"m 117 -306 l 117 1122 l 220 1122 l 220 -306 l 117 -306 z "},"¦":{"ha":338,"x_min":117,"x_max":220,"o":"m 117 581 l 117 1122 l 220 1122 l 220 581 l 117 581 m 117 -306 l 117 236 l 220 236 l 220 -306 l 117 -306 z "},"ʼ":{"ha":731,"x_min":365,"x_max":510,"o":"m 402 918 q 426 988 420 958 q 431 1015 429 1002 q 383 1031 400 1017 q 365 1072 365 1047 q 383 1113 365 1097 q 436 1128 401 1128 q 492 1109 473 1128 q 510 1052 510 1090 q 500 986 510 1023 q 472 918 490 950 l 402 918 z "},"ʻ":{"ha":731,"x_min":292,"x_max":438,"o":"m 367 918 q 311 938 330 918 q 292 994 292 957 q 303 1060 292 1024 q 331 1128 313 1097 l 401 1128 q 377 1058 383 1088 q 372 1031 374 1044 q 419 1015 403 1029 q 438 974 438 1000 q 420 933 438 949 q 367 918 402 918 z "},"¨":{"ha":731,"x_min":195,"x_max":638,"o":"m 567 919 q 515 937 534 919 q 496 987 496 956 q 515 1038 496 1019 q 567 1056 534 1056 q 619 1038 600 1056 q 638 987 638 1019 q 619 937 638 956 q 567 919 600 919 m 267 919 q 214 937 233 919 q 195 987 195 956 q 214 1038 195 1019 q 267 1056 233 1056 q 318 1038 299 1056 q 338 987 338 1019 q 318 937 338 956 q 267 919 299 919 z "},"`":{"ha":731,"x_min":199,"x_max":468,"o":"m 365 870 l 199 1122 l 319 1122 l 468 870 l 365 870 z "},"´":{"ha":731,"x_min":365,"x_max":635,"o":"m 365 870 l 515 1122 l 635 1122 l 468 870 l 365 870 z "},"ˆ":{"ha":731,"x_min":212,"x_max":622,"o":"m 212 870 l 367 1122 l 467 1122 l 622 870 l 533 870 l 417 1065 l 301 870 l 212 870 z "},"˚":{"ha":731,"x_min":281,"x_max":552,"o":"m 417 867 q 320 905 358 867 q 281 1001 281 943 q 320 1097 281 1059 q 417 1135 358 1135 q 514 1097 476 1135 q 552 1001 552 1059 q 514 905 552 943 q 417 867 476 867 m 417 918 q 475 941 452 918 q 498 1001 498 963 q 475 1062 498 1040 q 417 1084 452 1084 q 358 1062 381 1084 q 335 1001 335 1040 q 358 941 335 963 q 417 918 381 918 z "},"˜":{"ha":731,"x_min":201,"x_max":632,"o":"m 516 934 q 458 944 485 934 q 406 965 431 954 q 361 983 383 975 q 316 991 339 991 q 255 978 283 991 q 201 938 228 965 l 201 1019 q 317 1065 245 1065 q 375 1055 348 1065 q 427 1035 402 1045 q 473 1016 451 1024 q 517 1008 495 1008 q 579 1021 551 1008 q 632 1061 606 1034 l 632 981 q 516 934 588 934 z "},"¯":{"ha":731,"x_min":201,"x_max":632,"o":"m 201 951 l 201 1025 l 632 1025 l 632 951 l 201 951 z "},"¸":{"ha":731,"x_min":301,"x_max":561,"o":"m 419 -288 q 357 -282 388 -288 q 301 -265 325 -276 l 301 -208 q 361 -228 331 -222 q 417 -234 391 -234 q 475 -220 456 -234 q 494 -176 494 -206 q 415 -117 494 -117 l 390 -117 l 390 14 l 453 14 l 453 -72 q 526 -99 499 -77 q 561 -180 561 -128 q 525 -259 561 -230 q 419 -288 488 -288 z "},"\u0000":{"ha":0,"x_min":0,"x_max":0,"o":""}}}
